<svg width="225" height="225" xmlns="http://www.w3.org/2000/svg" preserveAspectRatio="xMidYMid meet" version="1.0">

 <g>
  <title>Layer 1</title>
  <g id="svg_1" fill="#000000" transform="translate(0 225) scale(0.1 -0.1)">
   <path fill="#ffffff" id="svg_2" d="m980,1913l-1,-258l-178,182l-178,181l-102,-102l-101,-101l184,-175l185,-175l-260,-3l-259,-2l0,-140l0,-140l260,0c143,0 259,-3 259,-7c-1,-5 -83,-87 -183,-183l-182,-175l98,-100l98,-100l253,253l252,252l252,-252l253,-253l99,99l100,100l-187,182l-187,183l263,1l262,0l0,140l0,140l-259,2l-258,3l184,175l183,174l-100,101l-100,101l-180,-181l-180,-180l2,258l3,257l-147,0l-148,0l0,-257z"/>
   <path fill="#ffffff" id="svg_3" d="m980,420l0,-340l145,0l145,0l0,340l0,340l-145,0l-145,0l0,-340z"/>
  </g>
 </g>
</svg>