<svg xmlns="http://www.w3.org/2000/svg" viewBox="0 0 510.24 510.24"><defs><style>.cls-1{fill:#1d1d1b;}.cls-2{fill:#fff;stroke:#fff;stroke-miterlimit:10;stroke-width:2px;}</style></defs><title>logocesarnuñez</title><g id="Capa_2" data-name="Capa 2"><g id="Capa_1-2" data-name="Capa 1"><path class="cls-1" d="M500.37,245.25h-.22a244.36,244.36,0,0,0-69.6-161.5,9.86,9.86,0,1,0-14.33-13.55A244.25,244.25,0,0,0,265,10.08c0-.07,0-.14,0-.21a9.87,9.87,0,0,0-19.74,0c0,.07,0,.14,0,.21A244.25,244.25,0,0,0,94,70.21,9.86,9.86,0,1,0,79.69,83.76a244.42,244.42,0,0,0-69.61,161.5H9.87a9.87,9.87,0,0,0,0,19.74h.21A244.25,244.25,0,0,0,70.21,416.22a9.86,9.86,0,1,0,13.55,14.33,244.36,244.36,0,0,0,161.5,69.6c0,.07,0,.14,0,.22a9.87,9.87,0,0,0,19.74,0c0-.08,0-.15,0-.22a244.36,244.36,0,0,0,161.49-69.6A9.86,9.86,0,1,0,440,416.22,244.13,244.13,0,0,0,500.15,265h.22a9.87,9.87,0,0,0,0-19.74ZM255.12,486.16c-127.6,0-231-103.44-231-231s103.45-231,231.05-231,231,103.45,231,231.05S382.72,486.16,255.12,486.16Z"/><path class="cls-1" d="M476.92,253.49c0,2.06.42,1.32.5,1.63C477.24,251.67,476.82,253.58,476.92,253.49Z"/><polygon class="cls-1" points="473.18 219.82 473.45 220.38 472.16 215.54 473.18 219.82"/><path class="cls-1" d="M466,189.05a39.11,39.11,0,0,0,1.85,7.32c.45,1.53,1.05,3.12,1.41,4.71s.76,3.13,1,4.51l.05.94,1.13,2.36-1.32-5.27c-.48-1.81-.9-3.67-1.49-5.42C467.52,194.68,466.57,191.38,466,189.05Z"/><path class="cls-1" d="M461.69,172.61c.13,1.07-1.57-3.33,1.37,3.71l-.2-.69Z"/><path class="cls-1" d="M462.86,175.63c1.25,3.11-.59-2.13,0,0Z"/><path class="cls-1" d="M456.68,161.43l2.05,3.93c-.23-.91-1.82-4.51-1.11-3.23C455.62,158.05,455.86,159,456.68,161.43Z"/><path class="cls-1" d="M454.44,157.87c.38.66.75,1.33,1.09,2A6.06,6.06,0,0,0,454.44,157.87Z"/><path class="cls-1" d="M457.72,164.21l-2.19-4.33a3.07,3.07,0,0,0,1,2C456.16,161.6,456.74,162.39,457.72,164.21Z"/><path class="cls-1" d="M458.75,166.75a27.57,27.57,0,0,1,1.08,3c.12.55,0,.27-1-1.7,1.67,3.86,2.41,5.5,2.43,5.16a11.09,11.09,0,0,0-.6-1.93A43.44,43.44,0,0,0,458.75,166.75Z"/><path class="cls-1" d="M464.75,187.74c.29,1.06.58,2.11.79,3.19l1,2.66c-.25-.67-.63-2.2-1-3.54A8.17,8.17,0,0,0,464.75,187.74Z"/><path class="cls-1" d="M443.87,137.09c-.28-.15.46,1.46.47,1.84.66.88,1.24,1.79,1.83,2.71C445.47,140.1,443.79,137.4,443.87,137.09Z"/><path class="cls-1" d="M444.34,138.93l-2.85-4C443.81,138.65,444.35,139.25,444.34,138.93Z"/><path class="cls-1" d="M453.37,157.52l1,1.72,1,1.75,1.89,3.53c-1.48-2.82-2.91-5.65-4.58-8.36Z"/><path class="cls-1" d="M433.36,121.67c.65.67,1.26,1.36,1.9,2l-1.64-1.85-1.74-1.79Z"/><path class="cls-1" d="M425.59,112c1.57,1.37-1.47-2.44.09-.92-2.26-2.5-4.29-4.55-6.21-6.3A72.28,72.28,0,0,1,425.59,112Z"/><path class="cls-1" d="M416.24,101.89c1,.94,2.07,1.89,3.23,2.92C418.42,103.8,417.36,102.82,416.24,101.89Z"/><path class="cls-1" d="M436.93,128a15.57,15.57,0,0,0-1.87-3.37l.76,1.81Z"/><path class="cls-1" d="M435.85,126.54l0-.06-2.38-3.39Z"/><path class="cls-1" d="M437.21,128.44l-.28-.4A.81.81,0,0,0,437.21,128.44Z"/><path class="cls-1" d="M447.74,146.11c-1.63-2.36-4.81-7.37-2.26-2.21C446.75,145.52,445.29,142.56,447.74,146.11Z"/><path class="cls-1" d="M438.15,130.68c1,1.42,1.82,2.92,2.74,4.37,0-.14-.33-1,.53.11C440.33,133.67,439.29,132.13,438.15,130.68Z"/><polygon class="cls-1" points="436.57 128.69 438.15 130.68 437.07 129.1 436.57 128.69"/><path class="cls-1" d="M421.94,108.7c-.8-.78-1.61-1.63-2.44-2.55l-2.73-2.8c1,1.11,2,2.18,3,3.33l2.88,3.38C423,110.28,424,111.09,421.94,108.7Z"/><path class="cls-1" d="M428.9,117.22l-.33-.38C428.73,117.11,428.88,117.31,428.9,117.22Z"/><path class="cls-1" d="M397,84.7l.28.34h.12Z"/><path class="cls-1" d="M422.91,110.49a30.83,30.83,0,0,0,3.27,3.54c-1.13-1.23-2.3-2.55-3.54-4C422.47,110,422.42,110,422.91,110.49Z"/><path class="cls-1" d="M410.79,96.59,412,98l1.31,1.52c-.35-.45-.86-1.15-1.38-1.72A9.88,9.88,0,0,0,410.79,96.59Z"/><path class="cls-1" d="M428.2,116.18l.22.25C428,115.8,428.06,115.9,428.2,116.18Z"/><path class="cls-1" d="M428.2,116.18c-.76-.86-1.39-1.51-2-2.15.86,1,1.67,2,2.39,2.81C428.43,116.61,428.29,116.36,428.2,116.18Z"/><path class="cls-1" d="M388.92,81.73a12.39,12.39,0,0,1,3.32,2c.86.62,1.83,1.34,2.79,2.15s1.87,1.72,2.75,2.62c3.9,3,2.35-.07-.47-3.47-.25.06-.27.08-4.44-2.87.62.65,2.81,2.44,4.24,3.94s2.34,2.44.61,1.17c-2.58-2.15-3.67-3-4.36-3.65s-1-1.08-2.23-2.17c.94,1.05-.85-.13-2.79-1.39s-4.09-2.46-3.7-1.76c1.67,1,3.23,2.21,4.83,3.35C389.48,81.81,387.7,80.64,388.92,81.73Z"/><path class="cls-1" d="M404.62,91.47l1.55,1.41-5.05-5.26c-2.78-2.15-3.42-2.51-3.69-2.57l3.9,3.41c1.28,1.16,2.63,2.23,3.85,3.46Z"/><path class="cls-1" d="M413,99.44a16.4,16.4,0,0,1-1.38-1l-1.53-1.13c-.89-.63-1.35-.85-.4.38L411.08,99l1,.95a15.62,15.62,0,0,0,1.2,1.05,22.75,22.75,0,0,1,2.35,2c-6.93-7.11,2.15,1.9-2.64-3.47,1.41,1.37,2.64,2.63,3.8,3.82-1.2-1.34-2.35-2.63-3.42-3.87l.14.19,0,0h0c.26.35.33.47,0,.1l-.15-.15a1.14,1.14,0,0,1-.42-.21c-1.93-2.15-.24-.4.42.21,0,0,.11.06.13,0l0,0c-1.15-1.2-2.39-2.32-3.62-3.43l-3.7-3.36c.75.75,1.6,1.58,2.69,2.62l1.84,1.74C411.4,97.87,412.15,98.59,413,99.44Z"/><path class="cls-1" d="M442,139.84c-.13-.28-.1-.28-.09-.32C441.51,139,441.35,138.83,442,139.84Z"/><path class="cls-1" d="M440,136.28a20.26,20.26,0,0,1,2.13,3c1,1.77-.18.1-.24.26.87,1.11,2.87,4,.72.16l-.43-.56a64.51,64.51,0,0,1-3.93-7.49A25.46,25.46,0,0,0,440,136.28Z"/><path class="cls-1" d="M427.2,117.05c-1.71-2.16-3.61-4.16-5.46-6.2l2.46,3.42,0-.31c.76.89,1.26,1.54,1.63,2a7.08,7.08,0,0,0,.75.82C426.93,117,427,116.87,427.2,117.05Z"/><path class="cls-1" d="M396.45,83.91l1.12.37c-1.33-.91-2.77-1.68-4.14-2.52Z"/><path class="cls-1" d="M387.92,77.27l.55-.07c-.8-.52-1.64-1-2.45-1.48Z"/><path class="cls-1" d="M68.35,365.7l1.29,2C69,366.76,68.65,366.14,68.35,365.7Z"/><path class="cls-1" d="M60.14,350.49l-.37-.29C60.23,350.86,60.45,351.12,60.14,350.49Z"/><path class="cls-1" d="M138.37,66.42c-3.18,1.6-6.86,3.28-6.25,3.42l1.16-.23C135.33,68.2,137,67.21,138.37,66.42Z"/><path class="cls-1" d="M40.06,212l.31-1c.05-.86.09-1.67.13-2.4C40.37,209.6,40.15,210.74,40.06,212Z"/><path class="cls-1" d="M41.38,214.74l-1.08,4.48C40.57,218.22,40.93,216.78,41.38,214.74Z"/><path class="cls-1" d="M132.65,433.76c.84.42,1.67.84,2.54,1.2C131.59,432.54,133.07,433.76,132.65,433.76Z"/><path class="cls-1" d="M286.7,35.61c-3-.56-5.44-.94-7.57-1.23C282.78,35.09,285.68,35.84,286.7,35.61Z"/><path class="cls-1" d="M61,362c.81,1.25,1.2,1.76,1.26,1.68C61.38,362.4,60.88,361.69,61,362Z"/><path class="cls-1" d="M270.29,33.64l1.61.23,3.44.17c1.18.08,2.43.13,3.79.34a34.93,34.93,0,0,0-4.3-.57A42.86,42.86,0,0,0,270.29,33.64Z"/><path class="cls-1" d="M435,376.46l.46-.62C435.45,375.74,435.27,376,435,376.46Z"/><path class="cls-1" d="M474.42,284.61c-.1,1-.3,2.62-.49,4.15C474.05,288,474.21,286.77,474.42,284.61Z"/><path class="cls-1" d="M350.87,54.64c2.07,1,.35.09,0,0Z"/><path class="cls-1" d="M360,61.19c-.45-.17-.81-.29-.91-.23A2.72,2.72,0,0,1,360,61.19Z"/><path class="cls-1" d="M247.57,36h-.2C248.05,36,247.93,36,247.57,36Z"/><path class="cls-1" d="M353.86,56.36c-.74-.44-1.6-.94-2.55-1.45Z"/><path class="cls-1" d="M353.54,56l1.77.95C355.6,57,355.39,56.82,353.54,56Z"/><path class="cls-1" d="M347.94,53.34c1.2.53,2.31,1.06,3.37,1.57-.4-.21-.56-.31-.44-.27Z"/><path class="cls-1" d="M283.75,471.31l.48,0C286.46,470.82,285.48,471,283.75,471.31Z"/><path class="cls-1" d="M95.77,107.26l.17-.2-.24.23Z"/><path class="cls-1" d="M90.66,113.49a27,27,0,0,1,5-6.2c-.92.36-1.86.71-2.75,1.11Z"/><path class="cls-1" d="M92.83,399l-3.4-4.52c2.47,2.37,4.46,4.51,5.46,5.52s1,.89-.53-1.29c-.38.07-1.47-.92-2.92-2.44a75.57,75.57,0,0,1-5-5.73c-1.7-2.14-3.41-4.28-4.79-5.87S79.4,381.93,79,382l-1.92-3.2c.61.88.77,1,1.37,1.84-3.68-6.25-3.89-3.85-8.81-11.82-1.63-2.83-2.53-4.94-1.3-3.09l-3.91-6.12c-.52-.92-.63-1.31-.52-1.22a10.86,10.86,0,0,1,1,1.55c-1-1.57-1.75-3.25-2.63-4.87l-2.57-4.9.07.06c-.93-1.31-2.64-4.46-3.51-6-1-2.64.72,1.23.57.51-.92-1.83-1.92-3.63-2.79-5.48-.3-1.24.09-.7.76.64s1.75,3.4,2.6,5.33a17.11,17.11,0,0,0-2.16-5.85,65.92,65.92,0,0,1-4.05-10.42c.68,1.8,1.5,3.55,2.24,5.32a24.65,24.65,0,0,0-.7-2.89c-.3-1-.68-2.05-1-3.21-.69-2.3-1.52-4.92-2.34-8.07.25,1.51,3,12.74.6,6.57a66.49,66.49,0,0,0-2.63-7.49c.45-.17-.62-3.5-1.84-7.71l.7.12c-.37-1.12-.67-1.93-.89-2.57s-.38-1.1-.55-1.49c-.32-.79-.61-1.34-1.06-2.67-1.13-5.16-.91-6.32-.69-7.62-1.38-8.32.25,5.89-1.62-3.93-.25-1.74-.51-3.35-.78-4.91s-.42-3.09-.66-4.65c-.47-3.13-1.14-6.42-1.57-10.61-.16-4.93.45.83.5-.95l-.84-4.32c-.07-1.06.11-.73.21-.56-.39-3.66-.67-.26-1-6.06A8,8,0,0,1,37,258.6c0-.65,0-1.39.07-2.2l0-1.26.12-1.34c.17-1.84.34-3.85.43-5.85s0-4,0-5.79c.32-1.75.33.87.62.35.11-4.92.16-7,.2-8.92s.17-3.55.32-7.62l.64-3.39c.2-1.13.52-2.24.78-3.36-1.37,4.91-.79-1.54-.24-7.25-.54,1.73-1,3.22-1.29,4.22l.63-4.52c.2-1.51.55-3,.82-4.49.35-1.06.35-.11.28,1.4.08-.62.16-1.2.22-1.66,1-3.12.94-1.39.77,1-.38,1-.76,2.1-1.12,3.11,0,2.29,0,4.43.48,4,0-.6.17-1.72.36-3,0,.6,0,1,.13.73s.11-1.25.31-2.72l1.15-1.85-.16-.55,1.54-5.7c.24-1,.55-1.89.86-2.83l.91-2.81c.39-2.08.77-4.1,1.15-6.16s1-4.13,1.52-6.37c.28-1.12.58-2.27.88-3.48s.76-2.42,1.18-3.72l1.39-4.08c.5-1.42,1-2.94,1.71-4.48-.9,3.26.49,1,1,1.4a32.51,32.51,0,0,0-2.89,6.87c-.48,1.43-1,2.94-1.53,4.53s-1,3.24-1.59,4.88c1.23-3.42,1.25-2.56,1-1.66,1.05-4,2.51-7.87,3.82-11.8.18.22.51-.35,1-1.35s1.15-2.38,1.9-3.81c-1,.91-.16-1.26,1.11-4.26l1-2.36c.39-.8.8-1.61,1.19-2.41.78-1.59,1.52-3.1,2-4.26.44-.12.2,1.11-2.68,6.55,3.8-5.67,2.84-8.42,6.8-13.88a13.6,13.6,0,0,0-1.34,2.59c.75-1.6,2.25-4.24,3.46-6.24s2.29-3.26,1.85-2.34l-.8,1.26c1.37-2.08,3.08-4.72,4.88-7.54s3.93-5.64,5.76-8.35c.89-1.37,1.89-2.59,2.73-3.76s1.63-2.24,2.29-3.18A22.34,22.34,0,0,0,87,115.31a5.9,5.9,0,0,1-.3,2.24c3.08-5.13,6.25-10.31,9.79-15.25-.56,1.64,4.84-1.51-.57,4.76.85-.83,1.81-1.75,3-2.94s2.46-2.68,4.21-4.47c-1.25,1-3.65,2.07-2.1.47,2.49-1.82,3.33-2.47,4.29-3.26L107,95.43c.76-.62,1.74-1.45,3.29-2.53-1.94,1.48-.66-1.14,2.28-3.64-.34.52,1,.64,0,1.65l3.25-3.56c1.09-1.18,2.26-2.27,3.39-3.42-1.76,1.64.26,1,2.13-.07-.45.22,1.17-1,3.15-2.58S129,78.15,130,77.35l-3.45,2.14a62.83,62.83,0,0,0,5.11-3.85l3.29-2.87c1-.89,2-1.78,3.34-2.81a38.68,38.68,0,0,1,5.31-3.54c-1,.85-2,2.82,2.74.23l2.21-2.05a45.32,45.32,0,0,1,3.69-3.14c1.47-1.13,3.14-2.36,5-3.61.92-.61,1.86-1.28,2.87-1.85s2.06-1.13,3.13-1.68l1.82-.46c2.18-1.12,4.36-2.28,6.62-3.25-2,1.16-5.69,3.65-9.64,6.13-2,1.2-3.95,2.66-5.83,3.91l-5.06,3.41c3.7-1.65,1.18-.18,6.53-3,2-.69-2.71,1.91-4.28,2.74l6.28-3.11,1.57-.78,1.61-.69,3.21-1.4c-.43-.18,2-1.43,4.34-2.69s4.92-2.26,4.57-2.42c-4.71,2-9.19,4.43-13.73,6.7-.43-.17,1.37-1.51,4.45-3.31a60.62,60.62,0,0,1,5.46-2.91c2.09-.94,4.37-1.9,6.71-2.79,2.46-.69-1.35,1.81-1.07,1.94.28-.17,1-.5,1.84-.9a32.2,32.2,0,0,1,3-1.26c2.18-.8,4.33-1.54,4.79-1.61l-3.89,1.7a59.72,59.72,0,0,0,7-2.64,39.36,39.36,0,0,1,8-2.29,34.73,34.73,0,0,1,4.3-.76,7.66,7.66,0,0,0,2.85-.59c-3.82.1-5.16-2-2.82-3.14l6.69-1.1c.82-.13,1.64-.28,2.45-.38l2.33-.24c1.46-.14,2.67-.24,3.34-.26,3.85-.08-5.38,2.41-2.09,2.34a14.77,14.77,0,0,1,3-1c2.41-.27-.9.74,4.27-.27.76-.8,10.63-1.3,2.38-.89,2.55-.42,3.91-.56,5.39-.69s3.06-.31,6.08-.51c-1-.15.34-.62,2.56-1.14a49.63,49.63,0,0,1,7.94-1.24c-.3.18.88.38,1.45.47l7.18-.1c2.18.06,4.2.18,6.19.26s4,.16,6.05.3l6.75.57c.9.21,5.62.82,3.57.92a50.68,50.68,0,0,1,5.76.36c5.77,1.32-6.74-.76-2.37.5.42-.3,7.89.32,12.18,1a7.49,7.49,0,0,0-2.12-.65,29.48,29.48,0,0,0-3.82-.59c-2.87-.29-6.13-.51-8.29-.67,0-.41,2-.6,5.16-.57,1.61,0,3.55,0,5.72.26s4.58.53,7.16.89a29.79,29.79,0,0,1,4,.77c.72.21.93.33.94.41s-.81.12-.1.22c3.77.91,6.48,1.46,8.62,1.83s3.68.74,5.16,1,2.87.51,4.67,1A66,66,0,0,1,326.93,46c4.68,2.15-.13,1.08.82,1.81-3.21-1-5.61-1.91-7.78-2.7s-4.11-1.42-6.31-2L319,44.86a82.21,82.21,0,0,1-8.75-2.33c1,.41,3.06,1.07,5.78,1.88l4.5,1.33,5.09,1.74c1.77.62,3.61,1.2,5.42,1.88l5.36,2.15c1.75.73,3.49,1.36,5.06,2.13s3.05,1.46,4.39,2.13c2,.7,5.41,2,3.93,1.14l-3.48-1.49c-3-1.83,6.74,2.39,2.46.24l1.82.69,1.84.79,3.9,1.74c1.34.62,2.74,1.28,4.19,2s2.89,1.66,4.41,2.61l.86,1.2a33.56,33.56,0,0,0-5.71-3.49,68.39,68.39,0,0,1,6,3.68c1.16.75,2.35,1.48,3.43,2.12a15.42,15.42,0,0,0,2.84,1.46c-1.34-1-2.65-2.08-4.05-3,1.16.55,2.35,1.2,3.59,1.88l3.86,2.13c1.31.75,2.69,1.48,4,2.37s2.6,1.79,3.88,2.76c-2-2.17-1.23-.81-4.55-4,2.83,2.83-13.76-8.83-8.91-4.66a41.1,41.1,0,0,0-5.37-3.76c-1.86-1.15-3.87-2.42-6.45-4.08.08.27,1.75,1.33-3-1.21-.25,0-.79-.25-1.13-.37l-.32-.18.26.15c-.22-.08-.25-.08.09.06a19.37,19.37,0,0,1,2.29,1.52c-1.3-.38-3.8-1.62-6.38-2.74s-5.22-2.2-6.57-2.68c-2.85-1.4,1.3.33-.19-.58l-2-.72-2.06-.63c-.22-.56-7.58-3.78-.51-1.28L332.49,47c-1.81-.86-4-1.62-6.19-2.41s-4.25-1.49-5.9-1.87c-3-1-7.87-1.72-5.11-1.3-1.71-.43-3.41-.89-5.13-1.29L305,39.05l-.07-.13c-5-1.32-10.41-1.94-15.88-2.85-5.52-.6-11.19-1.47-17.12-2.2l-5.62-.26c-2.08,0-4.45-.08-7.39-.22L257.75,33c-2.26-.06-5.65,0-8.72,0s-5.82,0-6.78.35a36.78,36.78,0,0,0-5.63,0c-1.2.06-2.51.14-3.89.24s-2.81.34-4.26.53l-4.4.61c-1.46.22-2.91.39-4.28.68-2.75.52-5.27,1-7.23,1.3l-.2.54-2,.36-2,.47-4.05,1L200,40.1c-1.47.42-3,.93-4.61,1.43l.52.31c-2.75,1-6.41,1.83-10.37,3.14l-6.25,1.92c-2.12.74-4.27,1.58-6.41,2.42a25.85,25.85,0,0,1,4.29-1.71c-2.65.77-5.32,1.74-8,2.8s-5.19,2.45-7.75,3.71-5,2.68-7.4,4-4.79,2.42-7,3.55a42.61,42.61,0,0,1-5.24,3c.2-.11.37-.22.52-.32l-.89.5c-1,.47-2,1-3.08,1.61l2.6-1.33c-1.66,1-4.05,2.64-6.41,4.26l-1.28.26-.55.37c-2.47,1.37-1.78,1.4-.32.9a31.87,31.87,0,0,0-2.94,2.37,16.65,16.65,0,0,0-4.22,2.68c-.79.59-1.6,1.2-2.4,1.73A12.19,12.19,0,0,1,120.57,79c-.64.76-3.41,3-6.11,5.32s-5.1,4.84-5.39,5.65c-.15,0-.82.49.34-.52a51.58,51.58,0,0,0-6.74,6.25l-1.39.49-2.23,2.69L97,101.7c-3.17,2.78-4.54,3.91-2,.55l-3.65,4.37-2,2.57c-1.16,1.46-2.24,2.74-4.72,6.26l-.05-.58c-1.89,2.42-4.5,6.6-5.9,7.86-1.18,1.26-3,3.65-5.21,6.7-.55.76-1.16,1.56-1.74,2.42l-1.77,2.71L66,140.51C61,149,55.76,158.88,52,166.89c1.25-1.33.24.47-.91,2.77s-2.4,5.13-2.11,5.62c-.63.85-1.68,3.1-.85.34l-1.12,3c-.32.95-.63,1.84-.93,2.69l-1.65,4.64c-.49,1.44-1,2.77-1.35,4.18s-.66,2.83-.9,4.38c-.55.92.14-2-.27-1.13a21.45,21.45,0,0,1-1,3.69c-.41.84.13-1.33.41-2.75-.62,2.23-1.05,4-1.33,5.34a23,23,0,0,0-.33,3.15,3.3,3.3,0,0,0,.6,2.41,53.33,53.33,0,0,0-1.5,5.46,33.43,33.43,0,0,0-.4,4.69c-.54,1.54-1.28,4.17-.37-1.48-.15.79-.46,2.39-.84,4.35-.19,1-.4,2.06-.61,3.16s-.3,2.27-.45,3.4c-.58,4.51-1.07,8.68-.69,8.87a39.78,39.78,0,0,0-.38,5.33c-.15,1.79-.26,3.18-.36,4.36s-.09,2.15-.13,3.12c-.06,1.95-.1,3.88-.16,7.41l.15-2c.63,2.8.16,5.87.39,11.57l-.08-.16a62.66,62.66,0,0,0,.14,6.6c.09,1.34.18,2,.26,2.72s.16,1.38.24,2.7c0,.66.07,1.48.13,2.53s.19,2.35.32,4l.39-.76c.58.54.79,3.38,1,7a94.85,94.85,0,0,0,1.72,11.68c-.09-.9-.14-1.81-.22-2.71a57.34,57.34,0,0,1,1.06,7.7,50.77,50.77,0,0,0,.94,7.81c.17.88-.56-1.33-.91-2.54,2.32,10.58,1,1.2,3.3,8.89,0,.76-.3.37-.47.43s-.12.18-.06.65a15.55,15.55,0,0,0,.67,2.55c.31,1.32,1.81,5,3.51,9.16.93,2.06,1.91,4.26,2.78,6.39.44,1.06.85,2.11,1.22,3.11s.79,1.93,1.09,2.8c-.43-1.59-.86-3.15.86.17,2.32,5.19,5.73,14.42,9,18.51.3.67.37.94.33,1l2.18,3.48c.83,1.34,1.71,2.82,2.69,4.17,1.9,2.75,3.7,5.29,4.59,6.27.17,1.1,1.37,2.95,2.92,5.2a84,84,0,0,0,5.57,7.24c2,2.38,3.92,4.72,5.37,6.4s2.28,2.84,2,3.07c1.5,1.67,2.93,3.4,4.47,5l4.67,4.83-.36-.14,2,2.16c.63.65,1.26,1.21,1.82,1.74,1.13,1,2.09,1.89,2.94,2.61a49.26,49.26,0,0,0,4.14,3.23c1.43,1.37.24.53.06.48a120.75,120.75,0,0,0,9.78,8.44c1.28,1,2.53,1.86,4,2.88.74.5,1.51,1.08,2.42,1.63l3,1.85.61,1c2.36,1.55,14.57,10.94,25.84,16.07a4,4,0,0,1-1.31-.42c6.26,3,13.61,6.84,20.25,9.69l4.77,2,2.19.87,2.06.66a23,23,0,0,0,6.09,1.28l2.2.63c.74.19,1.48.35,2.22.52l4.45,1c-11.3-3.36,1.9-.27-2.67-1.88a69.51,69.51,0,0,1,6.66,2.14c.8.3,1.3.48,1.24.55a5.81,5.81,0,0,1-2-.37l-.83-.33c-.57.08,0,.4,1.23.82s3,.84,4.93,1.31,3.83.93,5.28,1.31,2.41.59,2.3.75l8.56,1.54c2.85.46,5.71.77,8.55,1.18,1.43.17,2.84.42,4.27.53l4.26.37,4.25.36c.71.06,1.41.14,2.12.17l2.12.08,8.44.31c2.81,0,5.6-.06,8.38-.09,1.39,0,2.78,0,4.16-.1l4.14-.29,4.11-.29c1.37-.09,2.74-.19,4.09-.38-.86-.14-1.72-.25-2.57-.45,2.52-.22,5-.59,7.54-.87,2-.09,2.73.22-2.66.88a29.79,29.79,0,0,0,5.59-.75,15.59,15.59,0,0,0,3.5-1c10.51-1.57-3.94,1.57-.74,1l4.36-.84-1,.1c1.74-.47,2.68-.79,4-1.13.65-.18,1.39-.35,2.37-.57s2.18-.54,3.77-.9c4-.79,2.16,0,3.75-.38a11.49,11.49,0,0,0,2.44-.54c3.1-.78,6.17-1.69,9.26-2.53l-3.85.5c2-.72,4.17-1.33,5.28-1.68.56-.18.84-.33.71-.35a17.66,17.66,0,0,0-1.76.18c3.23-.47,11.77-3.13,19.73-6.43,2-.75,3.95-1.69,5.79-2.51l5.13-2.33c3.06-1.47,5.33-2.68,6.26-3.05,1.28-.77,2.56-1.52,3.86-2.25l3.92-2.37c2.67-1.6,5.56-3.16,8.59-5.15-1.59.87-2.83.9,2.46-2.4-.29.59.18.53,1.13.07a30.89,30.89,0,0,0,4-2.36c1.57-1.06,3.32-2.26,5-3.33.82-.54,1.63-1,2.37-1.48a18.88,18.88,0,0,1,1.95-1.17c-2,1.14,1.51-1.64,4.71-4.26a42.88,42.88,0,0,0,3.79-3.38c.71-.74.67-.89-.81.1,4-3.34.56.17,3.76-2.19,1.13-1.09,2.35-2.12,3.5-3.27l3.6-3.47c1.22-1.18,2.51-2.34,3.76-3.57l3.75-3.82c1.26-1.3,2.59-2.57,3.84-3.93l3.74-4.18,1.88-2.13L426,396l.89-1.12,3.54-4.54c0-.3-1.79,1.56,0-1.19,1.95-1.91,3.68-4,5.51-6a18.11,18.11,0,0,0,1.5-2.91,12.67,12.67,0,0,1,1-1.63,28.4,28.4,0,0,1,1.91-2.6c-.55.58-1.37,1.44-.31-.3A190.94,190.94,0,0,0,461.16,335,301.57,301.57,0,0,0,474,290.58c-1.07,4-.61,1.31-.07-1.82-.44,2-.42-.11-.72.25.4-2.09.76-4.2,1.14-6.3l.57-3.16c.2-1.05.38-2.11.5-3.17-.24-1.2,0-4.62.25-7.92a41.75,41.75,0,0,0,.17-4.57,9.73,9.73,0,0,0-.21-2.6v4.06c-.31-2.72-.74-.84-1.29,1.58s-1.32,5.38-1.76,5a31,31,0,0,1-.21,5.13c-.26,1.89-.7,3.94-1.1,6.11-.19,1.09-.39,2.2-.6,3.34-.09.57-.19,1.14-.28,1.72s-.22,1.16-.34,1.74a58.36,58.36,0,0,0-.9,7.22c-.57,2.09,0-1.87-.39-.77,0,2.52-.64,5.45-2,10.82l0-.64c-.22.95-.42,1.87-.62,2.75s-.48,1.73-.71,2.55l-1.35,4.67c-.46,1.47-.81,2.91-1.33,4.28l-1.47,4.09c-.49,1.36-1,2.74-1.51,4.16s-1.18,2.86-1.8,4.4c-1.3,3.06-2.65,6.5-4.58,10.41l1-1c-1.61,3.39-2.07,4.05-2.9,5.6-1.13,4.24,4.38-9.59,3.49-5.69a45.27,45.27,0,0,0-3,5.57c-.57,1.26-1.32,2.57-2,4s-1.46,2.83-2.2,4.26l-1.09,2.12c-.38.69-.79,1.35-1.17,2-.76,1.3-1.5,2.53-2.17,3.62a20.29,20.29,0,0,1-3.16,4.38c-3.12,4.85,1.38-1.14-1.74,3.72l-1.08,1.13-.47,1.44a22.41,22.41,0,0,1-2.62,3.4c-.67.71-1.09,1-1.24,1,.56-.73,1.46-2.16,2-3-1.56,1.9-3.54,4.73-5.26,7.25-.83,1.28-1.72,2.39-2.4,3.32s-1.23,1.6-1.51,1.92c1.18-1.42,2.39-2.82,3.55-4.26-1.16,1.59-2.41,3.18-3.66,4.82-.64.81-1.27,1.63-1.92,2.46s-1.29,1.66-2,2.46c-2.8,3.19-5.55,6.59-8.61,9.66l-4.45,4.71-4.58,4.43c-2.93,3-6,5.62-8.79,8.25l1-.58c-1.07,1-2,1.83-2.79,2.54l-2.18,1.76c-1.28,1-2.24,1.71-3.24,2.44s-2,1.51-3.46,2.51-3.3,2.3-5.87,4.19l.35-.31a63.47,63.47,0,0,1-7.74,5.48c2.58-2-5.38,2.85-2,.32l-1.77,1.22-1.48.93-2.13,1.35c-1.1.71-1.63,1.08-2,1.4l-1.32,1a32.79,32.79,0,0,1-3.31,2.34l-1.89.55c-1.19.8-1.82,1.26-2.86,1.9a43.42,43.42,0,0,1-5.38,2.84c4.65-2.45-4,1.17,1.22-1.62-3.14,1.19-5.81,2.35-8.16,3.43L334.06,458c-1.87.79-3.5,1.59-5.12,2.08a26.63,26.63,0,0,1-4.66,1.11c-2.75,1.47,0,.68,3.12-.32s6.37-2.42,4.82-1.65c1.4-.37.29.27-1.68,1.19s-4.87,1.89-6.88,2.52a27,27,0,0,1-3,.8c-1,.22-2.16.33-3.47.55s-2.82.47-4.64.86c-.91.2-1.9.43-3,.7s-2.29.48-3.6.79c1.05-.24,1.1-.33,2.14-.56-2,.32-3.89.85-5.91,1.38-1,.27-2,.54-3.13.79s-2.26.35-3.5.47c-2.61,1.09-6.31,1.09-7,2l9.7-1.92c-2.74.59-5.36,1.35-8.45,2.11a47.94,47.94,0,0,1-5.1.92c-1.86.27-3.92.5-6.22.68.7-.25,3.4-.8,5.26-1.15a31.65,31.65,0,0,0-3.94.46,21.84,21.84,0,0,1-4,.38,6.27,6.27,0,0,1,2.26-.58c1.24-.22,2.89-.44,4.7-.68s3.78-.49,5.66-.78,3.65-.77,5.09-1.18c-1.45.07-4.2.78-6.26,1.12s-3.41.53-2-.09a31.4,31.4,0,0,1-7.7,1.43,75,75,0,0,0-10,1l.45-.51a40.63,40.63,0,0,1-5.64.52l3.81-.71c-5.87.65-11.34-.06-17,0,5.89.15,6.56.28,6.37.46s-1.24.45,1.27.56a44.24,44.24,0,0,1-4.59.1c-1.26,0-2.28-.07-3.14-.13a36.44,36.44,0,0,1-4-.53c-1.15-.19-2.34-.5-4.27-.77s-4.58-.52-8.64-.85c2.2.17,8.23.93,4.77.9-1.54-.18-3.34-.32-5-.63s-3.11-.59-4-.83c-10.72-1.26,1.58.69-3,.4-3.58-1-5.28-.59-10-1.21l.06-.48c-1.51-.31-2.7-.53-3.64-.69s-1.61-.34-2.14-.43a5.45,5.45,0,0,0-1.78-.08c-.7.09-1.26.2-6.64-1.23l4.74.4c-1.89-.39-3.8-.71-5.67-1.17.43-.08.85-.12,1.29-.22-3.08-.63-5.08-1.15-7.06-1.69-1-.28-2-.57-3.06-.91s-2.28-.82-3.73-1.34c1.25.78-1,.57-6.23-1.17-3.41-1.55,2.09.36-5.15-2.4a26.46,26.46,0,0,1,2.84.7c.54.17,1.11.38,1.73.64s1.33.54,2.09.91c.38,0,1.73.27,2.12.24-3.72-1.48-9.39-3.58-12-4.58,1,.41,2.18.91,2.77,1.22-1.77-.59-3.56-1.15-5.33-1.77l-5.25-2c-1.53-.89-.19-.44,1.13,0-1-.45-1.95-.78-3-1.17a33.34,33.34,0,0,1-3.67-1.58c1,0,.91-.35,5.29,1.4-3.33-1.26-6.52-2.82-9.76-4.3-.28-.24-1.44-1-2.37-1.57s-1.59-1.15-1-.85c-2.49-1.58-5.74-3.19-9.16-5-1.67-1-3.39-2-5.1-3a47.08,47.08,0,0,1-5-3.32,21.44,21.44,0,0,1-2.47-1.51l-4.35-3.23-4.16-3.43c-1.41-1.15-2.88-2.29-4.41-3.51s-3.09-2.54-4.83-3.87c-1.08-1.28-2.22-2.47-3.23-3.8-5.06-4.6,4.26,5.28-4.17-2.4-3-2.71-3.45-3.33-3.37-3.55s.64,0-.27-1.09c-1.5-1.32-3.59-3.12-5.89-5.32a69.56,69.56,0,0,1-6.84-8C90.11,395.79,91.29,397.31,92.83,399ZM50,326.8c.32.76.78,1.9,1.23,3a12.37,12.37,0,0,1,1,2.71,8.62,8.62,0,0,1-1.3-2.4C50.64,329.2,50.41,328.15,50,326.8ZM43.76,200A33.55,33.55,0,0,1,42.45,205,44.11,44.11,0,0,1,43.76,200ZM327.48,45.51l-.18,0C323.83,44.11,325.06,44.6,327.48,45.51Zm7.2,2.85c.74.22.72.14.44,0a33,33,0,0,1-4-1.46A17.42,17.42,0,0,0,334.68,48.36ZM308.15,470l-1.5.21C309.93,469.34,309,469.68,308.15,470Z"/><path class="cls-1" d="M41.23,214.37a1.24,1.24,0,0,1-.38.65C40.82,215.67,40.91,215.7,41.23,214.37Z"/><path class="cls-1" d="M132.18,433.53l.21.15a.69.69,0,0,0,.26.08Z"/><path class="cls-1" d="M217.53,41a26.84,26.84,0,0,1-3,.29C214.46,41.37,215.17,41.34,217.53,41Z"/><path class="cls-1" d="M371.79,65.84c-1.4-.89-2.88-1.64-4.33-2.44a27.62,27.62,0,0,1,3.77,2.41C371.2,65.66,370.48,65,371.79,65.84Z"/><path class="cls-1" d="M404.09,94.12c.55.45,1.1,1,1.65,1.49l0-.3C403.53,93.21,401.86,91.87,404.09,94.12Z"/><path class="cls-1" d="M374.81,69.66c.05.28.75.81,1.8,1.49l1.81,1.13,2.06,1.39-.5-.35c.58.06.09-.4-.94-1.13S376.4,70.58,374.81,69.66Z"/><path class="cls-1" d="M381.14,74.13c.88.6,1.77,1.22,2.61,1.84C384.21,76,382.72,75.18,381.14,74.13Z"/><path class="cls-1" d="M343.86,51.83c1.46.78,1.16,0,1.94.49.95.15-1.63-.84-3.39-1.44a3.76,3.76,0,0,0-1.5-.37A27.35,27.35,0,0,0,343.86,51.83Z"/><polygon class="cls-1" points="376.43 72.28 375.66 71.2 373.82 70.5 376.43 72.28"/><path class="cls-1" d="M353.1,58.38,357.93,61c0-.11.61.16,1.4.52C356.31,60,353.05,58.19,353.1,58.38Z"/><path class="cls-1" d="M359.33,61.53c1.55.83,3,1.7,3.89,2.11C362.38,63.18,360.61,62.13,359.33,61.53Z"/><path class="cls-1" d="M370,68.36c-.43-.32-.87-.65-1.31-1l-3.35-2C366.92,66.41,368.53,67.29,370,68.36Z"/><path class="cls-1" d="M297.27,39.31l-5.94-.92c-.63.06,1,.46,3.17.78C295.94,39.31,298.15,39.63,297.27,39.31Z"/><path class="cls-1" d="M314.57,44.85a14.12,14.12,0,0,1-2.44-1.09l-.33.55Z"/><path class="cls-1" d="M297.62,40.9c-.62.07-8.61-1-1.17.26.31,0,1.95.17,2.83.27.44.06.69.08.5,0A15.16,15.16,0,0,0,297.62,40.9Z"/><polygon class="cls-1" points="208.15 41.05 209.64 40.7 209.21 39.76 208.15 41.05"/><path class="cls-1" d="M136.56,73.72c6-3.57,1.05-1.46,6.59-4.58.66-.5-.52,0-1.63.73s-2.23,1.3-1.57.75C136.5,73.13,134.55,74.21,136.56,73.72Z"/><path class="cls-1" d="M140,70.62l1.74-1.3C140.69,70,140.23,70.39,140,70.62Z"/><path class="cls-1" d="M476.59,267.84c.23-1.53.27-3.07.4-4.61l-.42,3C476.61,266.75,476.58,267.3,476.59,267.84Z"/><path class="cls-1" d="M476.13,259l.67-1.08-.51-2.77A27.43,27.43,0,0,1,476.13,259Z"/><path class="cls-1" d="M47.5,314.47l-.25-.29a21.67,21.67,0,0,0,.86,3.77Z"/><polygon class="cls-1" points="71.86 370.22 71.31 369.33 71.88 371.3 71.86 370.22"/><path class="cls-1" d="M104.56,409.49c-.74-.74-1.61-1.47-2.41-2.28s-1.61-1.61-2.32-2.37C103,408.1,104.48,410.38,104.56,409.49Z"/><path d="M423.87,273.64a16.65,16.65,0,0,0-7.32.86,3.43,3.43,0,0,1-1.18.22c-9.17-.29-18.34-.62-27.51-.9s-18.6-.53-27.9-.75c-8.27-.2-16.54-.38-24.81-.48s-16.54-.09-24.81-.11l-29.26,0-32.71-.05-37.27-.11-38.64,0q-24.81,0-49.61-.12l-25.18,0c-2.64,0-4.88,1.47-5.08,3.6a8.49,8.49,0,0,0,.45,3.94c.74,1.71,2.64,2.39,4.84,2.4l40.74.07,37,0,36.91.09c11.37,0,22.75,0,34.12,0q18.57,0,37.15.1,12.72,0,25.43,0c9.18,0,18.36.08,27.53,0,12.87-.16,25.74-.43,38.61-.73,13.32-.31,26.64-.73,40-1.08a3.61,3.61,0,0,1,1.16.22,16.9,16.9,0,0,0,10.59.21,9.89,9.89,0,0,0,2.69-1.37c1.51-1.1,1.49-2.62.12-3.84C428.75,274.75,426.86,274,423.87,273.64Z"/><path d="M99.59,255.6a17,17,0,0,1,7.33.86,3.38,3.38,0,0,0,1.17.23c9.18-.3,18.35-.63,27.52-.91s18.6-.53,27.9-.75c8.27-.19,16.54-.37,24.81-.47s16.54-.09,24.81-.11q14.63,0,29.26,0,16.35,0,32.7-.05,18.65,0,37.28-.1c12.88,0,25.76,0,38.63,0l49.62-.11,25.18,0c2.64,0,4.88,1.47,5.07,3.61a8.19,8.19,0,0,1-.45,3.93c-.73,1.72-2.63,2.4-4.84,2.4l-40.73.08q-18.51,0-37,0t-36.91.09l-34.12,0q-18.58,0-37.16.1l-25.42,0c-9.18,0-18.36.08-27.53,0-12.87-.16-25.74-.43-38.61-.74-13.32-.31-26.64-.72-40-1.08a3.33,3.33,0,0,0-1.16.23,16.83,16.83,0,0,1-10.59.2,9.1,9.1,0,0,1-2.69-1.37c-1.51-1.1-1.49-2.62-.12-3.83C94.72,256.72,96.61,256,99.59,255.6Z"/><path class="cls-1" d="M189.92,226.07a37.34,37.34,0,0,1-4.31,2.37,31.47,31.47,0,0,1-6.38,2.2,35.52,35.52,0,0,1-21.3-1.76,29.93,29.93,0,0,1-16.5-17.11,34.29,34.29,0,0,1-2.2-12.28,36.88,36.88,0,0,1,2.29-13.15,30.71,30.71,0,0,1,6.56-10.48,30.17,30.17,0,0,1,10-6.9,31.66,31.66,0,0,1,12.63-2.47A33.18,33.18,0,0,1,181.12,168a39.4,39.4,0,0,1,8,3.57l-3.43,8.09a34.51,34.51,0,0,0-6.43-3.43,21.12,21.12,0,0,0-8.27-1.58,21.36,21.36,0,0,0-8.8,1.84,22.85,22.85,0,0,0-7.3,5.2,24.82,24.82,0,0,0-6.78,17.33,27.45,27.45,0,0,0,1.63,9.55,23.11,23.11,0,0,0,4.66,7.74,21.27,21.27,0,0,0,7.35,5.15,24.39,24.39,0,0,0,9.68,1.85,23.31,23.31,0,0,0,8.63-1.5,26.62,26.62,0,0,0,6.24-3.34Z"/><path class="cls-1" d="M221.07,231.7a21.69,21.69,0,0,1-10.73-2.51,17.77,17.77,0,0,1-7-6.86,19.89,19.89,0,0,1-2.47-10,18,18,0,0,1,2.77-9.77,20.93,20.93,0,0,1,7.35-7,20,20,0,0,1,10.21-2.64,17.34,17.34,0,0,1,12,4.23,21.71,21.71,0,0,1,6.51,11.61l-30.1,10.56-1.93-4.84,24.55-9.06-1.67,1.23a12,12,0,0,0-3.52-5,9.59,9.59,0,0,0-6.43-2.11,11.07,11.07,0,0,0-10,5.94,13.41,13.41,0,0,0-1.49,6.47,13.85,13.85,0,0,0,1.54,6.6A11.14,11.14,0,0,0,215,223a12.14,12.14,0,0,0,6.29,1.63,12.51,12.51,0,0,0,4.62-.88,20.7,20.7,0,0,0,4.27-2.29l3.69,6.07a25.18,25.18,0,0,1-6.11,3A20.8,20.8,0,0,1,221.07,231.7Zm9.68-55.88-11.17,11.79H214.3l7.3-11.79Z"/><path class="cls-1" d="M323.59,230.63a19.56,19.56,0,0,1-9.28-2.2,16.29,16.29,0,0,1-6.65-6.47,23.22,23.22,0,0,1,.09-21,17.66,17.66,0,0,1,6.86-6.78,19.27,19.27,0,0,1,9.42-2.38,15.47,15.47,0,0,1,8.67,2.34,15.71,15.71,0,0,1,5.32,5.5l-.53,1.32.8-7.66h7.56v36.43h-8.18v-9.5l1,2.11A11.31,11.31,0,0,1,337,224.6a21.54,21.54,0,0,1-3.13,2.77,16.69,16.69,0,0,1-10.25,3.26Zm2.2-6.77a13,13,0,0,0,5.54-1.15,10.83,10.83,0,0,0,4.1-3.26,12.19,12.19,0,0,0,2.24-4.92V207.4a11.23,11.23,0,0,0-2.46-4.62A12.35,12.35,0,0,0,331,199.7a13.06,13.06,0,0,0-5.37-1.1,11.75,11.75,0,0,0-10.42,6,12.92,12.92,0,0,0-1.63,6.6,12.61,12.61,0,0,0,1.67,6.43,12.38,12.38,0,0,0,4.49,4.57A11.62,11.62,0,0,0,325.79,223.86Z"/><path class="cls-1" d="M369.26,193.32l.79,10.56-.35-1.5a16.06,16.06,0,0,1,4.05-5.63,19.87,19.87,0,0,1,5.63-3.61,15.71,15.71,0,0,1,5.11-1.32l-.36,8.28a11.87,11.87,0,0,0-7.34,1.53,14.19,14.19,0,0,0-4.93,4.93,12.57,12.57,0,0,0-1.81,6.56v16.63h-8.18V193.32Z"/><path class="cls-1" d="M192.8,361.57l-49.19-49.9,2.46.62.18,47.25h-8.54V294h.44l48.58,50.07-1.94-.44-.18-47.69h8.54v65.65Z"/><path class="cls-1" d="M221,361a11.59,11.59,0,0,1-8.32-3,10.94,10.94,0,0,1-3.39-7.87V323.11h8.28v24a7.93,7.93,0,0,0,1.76,4.8,6.28,6.28,0,0,0,4.92,2,8.87,8.87,0,0,0,5.42-1.8,13.13,13.13,0,0,0,3.91-4.93,16.18,16.18,0,0,0,1.5-7.09v-17h8.18v36.43h-7.48l-.7-9,.53,1.67a14.47,14.47,0,0,1-3.26,4.44,15.61,15.61,0,0,1-5.06,3.13A17.3,17.3,0,0,1,221,361Z"/><path class="cls-1" d="M264.78,323.11l.62,8.89-.27-1.41a13.61,13.61,0,0,1,5.63-6.47A17.46,17.46,0,0,1,280,321.7a11.9,11.9,0,0,1,8.4,3,10.48,10.48,0,0,1,3.39,7.87v26.93h-8.27V335.43a7.52,7.52,0,0,0-1.72-4.8,6.33,6.33,0,0,0-5.06-1.89,9.93,9.93,0,0,0-5.68,1.76,11.75,11.75,0,0,0-4,4.84,16.54,16.54,0,0,0-1.46,7.13v17.07H257.3V323.11Zm16.63-4.49a8,8,0,0,1-4.7-1.27,36.76,36.76,0,0,1-3.39-2.69,18.17,18.17,0,0,0-2.07-1.76,4,4,0,0,0-2.42-.79,2.66,2.66,0,0,0-1.89.79,5,5,0,0,0-1.28,2.25,12.48,12.48,0,0,0-.44,3.56h-4.4a14.47,14.47,0,0,1,.75-6.2,9.65,9.65,0,0,1,3-4.36,7.42,7.42,0,0,1,4.8-1.58,6.38,6.38,0,0,1,3.87,1.23,34.92,34.92,0,0,1,3.17,2.64,30.5,30.5,0,0,0,2.28,2.07,4,4,0,0,0,2.56.92,2.54,2.54,0,0,0,2.42-1.85,13.84,13.84,0,0,0,.75-5h4.39a14.94,14.94,0,0,1-.57,6.33,9.12,9.12,0,0,1-2.72,4.23A6.3,6.3,0,0,1,281.41,318.62Z"/><path class="cls-1" d="M323,360.42a21.59,21.59,0,0,1-10.74-2.51,17.77,17.77,0,0,1-6.95-6.86,19.94,19.94,0,0,1-2.46-10,18,18,0,0,1,2.77-9.77,20.93,20.93,0,0,1,7.35-7,20,20,0,0,1,10.21-2.64,17.32,17.32,0,0,1,12,4.23,21.74,21.74,0,0,1,6.51,11.61L311.51,348l-1.94-4.84,24.56-9.06-1.68,1.23a11.84,11.84,0,0,0-3.52-5,9.5,9.5,0,0,0-6.42-2.12,11.07,11.07,0,0,0-10,5.94,13.41,13.41,0,0,0-1.5,6.47,13.8,13.8,0,0,0,1.54,6.6,11.2,11.2,0,0,0,4.31,4.53,12.17,12.17,0,0,0,6.3,1.63,12.42,12.42,0,0,0,4.61-.88,20.23,20.23,0,0,0,4.27-2.29l3.7,6.08a25.23,25.23,0,0,1-6.12,3A20.74,20.74,0,0,1,323,360.42Z"/><path class="cls-1" d="M355.16,329.8a6.75,6.75,0,0,1-4.62-1.67,6.33,6.33,0,0,1-1.9-5v-3.52h6.25v1.14c0,1,.22,1.65.66,1.94a4.28,4.28,0,0,0,2.25.44h23.4l-21.82,31.33-1.67-1.67h23.14v6.77h-33.7l22.26-32,1.41,2.29Z"/><path class="cls-2" d="M280.59,135.22c3.84,0,6.19,5.33,7.2,9.32,2.08,8.16.46,16-2.88,23.6a63,63,0,0,1-9.06,14.14,2.56,2.56,0,0,0-.51,1.84c.8,3.94,1.71,7.87,2.64,12a29,29,0,0,1,4.93,0c10.78,1.89,16.76,12,13.44,22.68-1.77,5.69-5.08,10.17-10.71,12.86q1.16,5.34,2.32,10.68a22,22,0,0,1,.18,10.33A13.34,13.34,0,0,1,275.06,263c-5.64,0-9.11-2.46-10.77-4.7-2.14-2.78-3.56-5.82-2.73-9.42a7.34,7.34,0,0,1,8.39-5.65,7.58,7.58,0,0,1-.89,15c-.37,0-.74,0-1.11,0a2.83,2.83,0,0,0,2.18,1.87c7.12,1.94,14-.17,15.5-9.19.7-4.31-.41-8.39-1.25-12.52-.39-1.9-.82-3.79-1.23-5.71-1.77.18-3.46.45-5.15.52a26.7,26.7,0,0,1-27.09-20.9c-1.46-7.11.4-13.71,3.9-19.91,3.06-5.44,7.28-9.95,11.79-14.2,1.18-1.12,2.42-2.17,3.56-3.34a1.83,1.83,0,0,0,.43-1.39c-.74-5-1.75-10-2.28-15.11a29,29,0,0,1,3.18-15.9C273,139.39,276,135.22,280.59,135.22Zm-7.39,50.39a5.36,5.36,0,0,0-.57.44c-3.62,3.93-7.25,7.86-10.84,11.81a18.07,18.07,0,0,0-4.67,15.43,19.8,19.8,0,0,0,19.55,17.19,49.4,49.4,0,0,0,5.92-.66c-.95-4.45-1.81-8.53-2.68-12.6s-1.77-8.19-2.67-12.33A10.94,10.94,0,0,0,270,211.2c-2.69,6.18,5,13.22,5,13.22a16.57,16.57,0,0,1-6.55-3.49,11.4,11.4,0,0,1-4.31-9.54c.3-5.43,3.14-9.41,7.44-12.45a44.14,44.14,0,0,1,4-2.26C274.8,193.06,274,189.44,273.2,185.61Zm-.38-13.35a29.22,29.22,0,0,0,10.6-14.69c1.06-3.35,1.79-6.72,1.06-10.24-.63-3.09-2.17-3.84-5-2.39a13.61,13.61,0,0,0-6.15,6.77C270.18,158.46,271,165.32,272.82,172.26ZM285,228.49c5.36-2.42,8.3-9.77,6.48-15.72-1.49-4.89-7-8.73-11.63-8C281.52,212.65,283.23,220.51,285,228.49Z"/><path d="M279.65,134.28c3.84,0,6.19,5.32,7.2,9.31,2.08,8.17.46,16-2.88,23.61a63.49,63.49,0,0,1-9.06,14.14,2.5,2.5,0,0,0-.51,1.83c.8,4,1.71,7.87,2.64,12a29,29,0,0,1,4.93,0c10.78,1.88,16.76,12,13.44,22.68-1.77,5.69-5.08,10.16-10.71,12.85q1.16,5.34,2.32,10.68a22,22,0,0,1,.18,10.34A13.36,13.36,0,0,1,274.12,262c-5.64,0-9.11-2.47-10.77-4.71-2.14-2.78-3.56-5.81-2.73-9.42a7.34,7.34,0,0,1,8.39-5.64,7.58,7.58,0,0,1-.89,15c-.37,0-.74,0-1.11,0a2.81,2.81,0,0,0,2.18,1.87c7.12,1.94,14-.16,15.49-9.19.71-4.31-.4-8.38-1.24-12.51-.39-1.9-.82-3.8-1.23-5.72-1.77.19-3.46.45-5.15.52A26.68,26.68,0,0,1,250,211.34c-1.46-7.11.4-13.71,3.89-19.9,3.07-5.45,7.29-9.95,11.8-14.21,1.18-1.12,2.42-2.17,3.56-3.33a1.86,1.86,0,0,0,.43-1.4c-.74-5-1.75-10-2.28-15.1a29.09,29.09,0,0,1,3.18-15.91C272,138.45,275,134.28,279.65,134.28Zm-7.39,50.38a7.19,7.19,0,0,0-.57.44c-3.62,3.94-7.25,7.86-10.84,11.81a18.09,18.09,0,0,0-4.67,15.44,19.81,19.81,0,0,0,19.55,17.19,53.86,53.86,0,0,0,5.92-.66c-.95-4.45-1.81-8.53-2.68-12.61s-1.77-8.18-2.67-12.33a11,11,0,0,0-7.23,6.31c-2.69,6.18,5,13.22,5,13.22a16.44,16.44,0,0,1-6.55-3.49,11.4,11.4,0,0,1-4.31-9.53c.3-5.44,3.14-9.41,7.44-12.45a41.93,41.93,0,0,1,4-2.27C273.86,192.11,273.08,188.49,272.26,184.66Zm-.38-13.34a29.32,29.32,0,0,0,10.6-14.69c1.06-3.35,1.79-6.72,1.06-10.25-.63-3.08-2.17-3.83-5-2.39a13.61,13.61,0,0,0-6.15,6.77C269.24,157.52,270.06,164.38,271.88,171.32ZM284,227.55c5.36-2.42,8.3-9.78,6.48-15.73-1.49-4.88-7-8.72-11.63-8C280.58,211.71,282.28,219.56,284,227.55Z"/></g></g></svg>