<svg xmlns="http://www.w3.org/2000/svg" viewBox="0 0 438.44 120.89"><defs><style>.cls-1,.cls-2{fill:#fff;}.cls-2{stroke:#1d1d1b;stroke-miterlimit:10;stroke-width:2px;}</style></defs><title>navbarlogo_2</title><g id="Capa_2" data-name="Capa 2"><g id="Capa_1-2" data-name="Capa 1"><path class="cls-1" d="M139.74,96.44V21.84h.1l37.9,53.9-4.1-.9,37.9-53h.1v74.6h-9.7V43.84l.7,4.9-27.2,38.6h-.2l-27.7-38.6,1.6-4.5v52.2Z"/><path class="cls-1" d="M243.34,98a13.19,13.19,0,0,1-9.45-3.45,12.43,12.43,0,0,1-3.85-9V55h9.4v27.3a9.09,9.09,0,0,0,2,5.45q1.8,2.14,5.6,2.25A10.07,10.07,0,0,0,253.19,88a14.85,14.85,0,0,0,4.45-5.6,18.47,18.47,0,0,0,1.7-8V55h9.3v41.4h-8.5l-.8-10.2.6,1.9a16.44,16.44,0,0,1-3.7,5,17.71,17.71,0,0,1-5.75,3.55A19.73,19.73,0,0,1,243.34,98Zm17.5-64.1-12.7,13.4h-6l8.3-13.4Z"/><path class="cls-1" d="M296.34,97.24a24.35,24.35,0,0,1-8.55-1.55A16.71,16.71,0,0,1,280.94,91l3.9-5.4a21.46,21.46,0,0,0,5.4,3.75,12.81,12.81,0,0,0,5.4,1.25,13.19,13.19,0,0,0,3.7-.5,5.75,5.75,0,0,0,2.75-1.7,4.55,4.55,0,0,0,1.05-3.1,4.41,4.41,0,0,0-1.45-3.55A11.41,11.41,0,0,0,298,79.74q-2.21-.81-4.8-1.5a17.89,17.89,0,0,1-7.8-4.7,10.53,10.53,0,0,1-2.7-7.3,12.07,12.07,0,0,1,1.65-6.15,12.71,12.71,0,0,1,4.95-4.7,16.07,16.07,0,0,1,8-1.85,26.07,26.07,0,0,1,7.7,1.05,18.41,18.41,0,0,1,6.4,3.55l-3.7,5.8a11.46,11.46,0,0,0-4.25-2.85,12.3,12.3,0,0,0-4.45-1,9.85,9.85,0,0,0-3.35.55,5.94,5.94,0,0,0-2.5,1.6,3.81,3.81,0,0,0-.95,2.65,3.92,3.92,0,0,0,1.35,3.35,11.8,11.8,0,0,0,3.65,2l4.5,1.6a22.13,22.13,0,0,1,5.4,2.4A12.4,12.4,0,0,1,311,78a9.75,9.75,0,0,1,1.45,5.5,13.86,13.86,0,0,1-1.75,6.85,12.47,12.47,0,0,1-5.3,5A19.55,19.55,0,0,1,296.34,97.24Z"/><path class="cls-1" d="M324.74,40a4.67,4.67,0,0,1,1.75-3.7,5.77,5.77,0,0,1,3.85-1.5,5.6,5.6,0,0,1,3.8,1.5,4.93,4.93,0,0,1,0,7.45,5.74,5.74,0,0,1-3.8,1.45,5.92,5.92,0,0,1-3.85-1.45A4.64,4.64,0,0,1,324.74,40Zm.6,15h9.4v41.4h-9.4Z"/><path class="cls-1" d="M384.44,92.54a21,21,0,0,1-6.7,3.6,24.73,24.73,0,0,1-7.8,1.3,25.13,25.13,0,0,1-11.85-2.7,19.86,19.86,0,0,1-8-7.6,22.2,22.2,0,0,1-2.9-11.5,20.76,20.76,0,0,1,3.1-11.45,21.29,21.29,0,0,1,8.05-7.5A22.37,22.37,0,0,1,369,54a27.27,27.27,0,0,1,8.85,1.35,20.57,20.57,0,0,1,6.85,3.85l-4.7,6a20.48,20.48,0,0,0-4.35-2.45,14.51,14.51,0,0,0-5.85-1.15,12.69,12.69,0,0,0-6.75,1.85,13.25,13.25,0,0,0-4.8,5,14.43,14.43,0,0,0-1.75,7.15,14.25,14.25,0,0,0,1.8,7.1,13.67,13.67,0,0,0,5,5.1,14.27,14.27,0,0,0,7.4,1.9,14.47,14.47,0,0,0,4.85-.8,14.66,14.66,0,0,0,4.05-2.2Z"/><path class="cls-1" d="M392.74,75.34a21.57,21.57,0,0,1,2.95-11.2,21.13,21.13,0,0,1,8.2-7.9,24.22,24.22,0,0,1,11.95-2.9,23.41,23.41,0,0,1,11.8,2.9,20.74,20.74,0,0,1,7.95,7.9,23.43,23.43,0,0,1,0,22.4,21.21,21.21,0,0,1-7.95,7.95,23.42,23.42,0,0,1-11.9,3,24.79,24.79,0,0,1-11.85-2.75,20.82,20.82,0,0,1-8.15-7.7A22.06,22.06,0,0,1,392.74,75.34Zm9.4.1a14.74,14.74,0,0,0,1.8,7.25,14.08,14.08,0,0,0,4.8,5.15,12.48,12.48,0,0,0,6.8,1.9,12.68,12.68,0,0,0,6.9-1.9,13.71,13.71,0,0,0,4.75-5.15,15.89,15.89,0,0,0,0-14.5,14,14,0,0,0-4.75-5.2,12.38,12.38,0,0,0-6.9-2,12.14,12.14,0,0,0-6.85,2,14.1,14.1,0,0,0-4.8,5.25A14.78,14.78,0,0,0,402.14,75.44Z"/><path class="cls-1" d="M118.55,58.11h0A57.9,57.9,0,0,0,102,19.85a2.34,2.34,0,0,0-1.69-4,2.37,2.37,0,0,0-1.71.74A57.88,57.88,0,0,0,62.78,2.39V2.34a2.34,2.34,0,1,0-4.67,0v.05A57.9,57.9,0,0,0,22.27,16.63a2.34,2.34,0,1,0-3.39,3.22A57.85,57.85,0,0,0,2.39,58.11H2.34a2.34,2.34,0,1,0,0,4.67h.05A57.88,57.88,0,0,0,16.63,98.61a2.37,2.37,0,0,0-.74,1.71,2.34,2.34,0,0,0,4,1.69A57.9,57.9,0,0,0,58.11,118.5v0a2.34,2.34,0,1,0,4.67,0v0A57.92,57.92,0,0,0,101,102a2.34,2.34,0,1,0,3.21-3.4A57.83,57.83,0,0,0,118.5,62.78h0a2.34,2.34,0,1,0,0-4.67ZM60.44,115.18a54.74,54.74,0,1,1,54.74-54.74A54.74,54.74,0,0,1,60.44,115.18Z"/><path class="cls-1" d="M113,60.06c0,.49.11.31.13.38C113.09,59.63,113,60.08,113,60.06Z"/><polygon class="cls-1" points="112.07 52.09 112.14 52.22 111.86 51.07 112.07 52.09"/><path class="cls-1" d="M110.42,44.78c0,.73.71,2.62,1,3.93l0,.22.29.56C111.28,47.92,110.67,45.9,110.42,44.78Z"/><path class="cls-1" d="M109.4,40.89c0,.26-.35-.8.3.89l0-.17C109.61,41.46,109.53,41.25,109.4,40.89Z"/><path class="cls-1" d="M109.66,41.61c.28.75-.12-.51,0,0Z"/><path class="cls-1" d="M108.2,38.25l.51.92c-.06-.22-.46-1.06-.28-.76C107.93,37.45,108,37.67,108.2,38.25Z"/><path class="cls-1" d="M107.65,37.41l.26.48A2,2,0,0,0,107.65,37.41Z"/><path class="cls-1" d="M108.45,38.9l-.54-1a.69.69,0,0,0,.24.47C108.06,38.29,108.21,38.48,108.45,38.9Z"/><path class="cls-1" d="M108.71,39.5c.24.53.46,1.26,0,.31a6.16,6.16,0,0,0,.56,1.23A5.81,5.81,0,0,0,108.71,39.5Z"/><path class="cls-1" d="M110.11,44.48a6.87,6.87,0,0,1,.19.75l.22.64c0-.16-.13-.53-.21-.85A1.7,1.7,0,0,0,110.11,44.48Z"/><path class="cls-1" d="M105.17,32.48c-.07,0,.09.35.09.44l.44.64A8.21,8.21,0,0,1,105.17,32.48Z"/><path class="cls-1" d="M105.26,32.92l-.65-1C105.14,32.86,105.26,33,105.26,32.92Z"/><polygon class="cls-1" points="107.39 37.33 108.33 38.98 107.23 37.01 107.39 37.33"/><polygon class="cls-1" points="102.66 28.83 103.13 29.31 102.32 28.45 102.66 28.83"/><path class="cls-1" d="M100.86,26.52c.38.31-.36-.57,0-.22-.54-.58-1-1.05-1.5-1.46A19.86,19.86,0,0,1,100.86,26.52Z"/><path class="cls-1" d="M98.63,24.13l.75.71C99.13,24.59,98.89,24.36,98.63,24.13Z"/><path class="cls-1" d="M103.53,30.33a3.08,3.08,0,0,0-.46-.79l.19.42Z"/><path class="cls-1" d="M103.27,30v0l-.58-.79Z"/><path class="cls-1" d="M103.6,30.42l-.07-.09A.2.2,0,0,0,103.6,30.42Z"/><path class="cls-1" d="M106.08,34.61c-.4-.55-1.18-1.71-.56-.5C105.84,34.48,105.48,33.79,106.08,34.61Z"/><path class="cls-1" d="M103.83,31c.23.33.42.7.63,1.05,0,0-.07-.25.13,0C104.33,31.66,104.11,31.29,103.83,31Z"/><polygon class="cls-1" points="103.44 30.49 103.83 30.95 103.56 30.58 103.44 30.49"/><path class="cls-1" d="M100,25.76c-.39-.37-.79-.79-1.23-1.27.45.53.93,1.08,1.4,1.58C100.23,26.12,100.48,26.31,100,25.76Z"/><path class="cls-1" d="M101.63,27.76l-.08-.09C101.59,27.74,101.62,27.78,101.63,27.76Z"/><polygon class="cls-1" points="94.08 20.05 94.15 20.13 94.18 20.13 94.08 20.05"/><path class="cls-1" d="M100.2,26.17a6.31,6.31,0,0,0,.8.82l-.86-.92S100.08,26.05,100.2,26.17Z"/><path class="cls-1" d="M97.35,22.87a7.05,7.05,0,0,1,.6.68A3.06,3.06,0,0,0,97.35,22.87Z"/><path class="cls-1" d="M101.47,27.51l0,.06C101.43,27.42,101.44,27.44,101.47,27.51Z"/><path class="cls-1" d="M101.47,27.51c-.18-.21-.33-.36-.47-.52l.55.68A1.19,1.19,0,0,1,101.47,27.51Z"/><path class="cls-1" d="M92.12,19.4a3,3,0,0,1,.8.45c.21.15.45.31.67.5s.44.42.64.64c.91.72.56,0-.08-.86-.07,0-.05,0-1.07-.66.35.24,2,1.83,1.14,1.21-.59-.53-.86-.71-1-.86s-.25-.26-.54-.51c.45.49-1.73-1.07-1.56-.72l1.15.79S91.82,19.15,92.12,19.4Z"/><path class="cls-1" d="M95.85,21.69l.38.32A17.11,17.11,0,0,1,95,20.75a3.83,3.83,0,0,0-.86-.62L96,21.79Z"/><path class="cls-1" d="M97.86,23.54c-.32-.23-1.27-1-.8-.4,1,1,.77.67,1.4,1.27-1.6-1.72.5.46-.6-.84l.88.92L98,23.55l0,.05h0c.06.09.07.12,0,0l0,0-.1-.05c-.45-.52-.06-.1.1.05s0,0,0,0h0c-.53-.59-1.17-1.06-1.75-1.59C96.57,22.37,97.07,22.76,97.86,23.54Z"/><path class="cls-1" d="M104.68,33.16c0-.07,0-.07,0-.08S104.53,32.91,104.68,33.16Z"/><path class="cls-1" d="M104.23,32.3a4.92,4.92,0,0,1,.49.71c.22.43,0,0-.06.07.2.27.67,1,.17,0l-.1-.13a12.76,12.76,0,0,1-.88-1.81A6,6,0,0,0,104.23,32.3Z"/><path class="cls-1" d="M101.21,27.73a14.91,14.91,0,0,0-1.3-1.46l.6.8V27C101.21,27.86,101.09,27.66,101.21,27.73Z"/><path class="cls-1" d="M94,19.85l.27.09a10,10,0,0,0-1-.58Z"/><polygon class="cls-1" points="91.89 18.33 92.03 18.3 91.45 17.95 91.89 18.33"/><path class="cls-1" d="M16.26,86.6l.32.47Z"/><path class="cls-1" d="M14.33,83l-.09-.07C14.35,83.09,14.4,83.15,14.33,83Z"/><path class="cls-1" d="M32.79,15.75c-.77.36-1.66.73-1.51.77l.28-.05C32.06,16.15,32.45,15.93,32.79,15.75Z"/><path class="cls-1" d="M9.5,50.22,9.57,50l0-.57A6,6,0,0,0,9.5,50.22Z"/><path class="cls-1" d="M9.85,50.88,9.62,52C9.68,51.71,9.76,51.37,9.85,50.88Z"/><path class="cls-1" d="M31.46,102.73a5.5,5.5,0,0,0,.6.28C31.21,102.44,31.56,102.72,31.46,102.73Z"/><path class="cls-1" d="M67.92,8.45c-.71-.15-1.28-.25-1.78-.33A7.65,7.65,0,0,0,67.92,8.45Z"/><path class="cls-1" d="M14.42,85.78c.2.29.3.41.31.39C14.53,85.87,14.4,85.7,14.42,85.78Z"/><path class="cls-1" d="M64,8l.38,0a13.55,13.55,0,0,1,1.72.1A8,8,0,0,0,64,8Z"/><path class="cls-1" d="M103,89.17l.11-.15S103.09,89.07,103,89.17Z"/><path class="cls-1" d="M112.39,67.43c0,.24-.09.62-.14,1C112.28,68.23,112.33,67.94,112.39,67.43Z"/><path class="cls-1" d="M83.12,13c.49.23.08,0,0,0Z"/><path class="cls-1" d="M85.3,14.49c-.11,0-.2-.07-.22-.05A.55.55,0,0,1,85.3,14.49Z"/><path class="cls-1" d="M58.66,8.56h0C58.77,8.58,58.74,8.58,58.66,8.56Z"/><path class="cls-1" d="M83.84,13.36,83.22,13Z"/><path class="cls-1" d="M83.76,13.27l.42.21C84.25,13.5,84.2,13.46,83.76,13.27Z"/><path class="cls-1" d="M82.44,12.64l.78.39c-.09,0-.13-.08-.1-.07Z"/><path class="cls-1" d="M67.22,111.61h.11C67.86,111.47,67.63,111.52,67.22,111.61Z"/><path class="cls-1" d="M22.75,25.46l0-.05-.05.06Z"/><path class="cls-1" d="M21.52,26.93a7.87,7.87,0,0,1,1.21-1.46l-.66.26Z"/><path class="cls-1" d="M22.05,94.48l-.82-1c1.2,1.09,1.94,2,1.2,1-.09,0-.36-.21-.71-.56a10.34,10.34,0,0,1-1.18-1.35,9.36,9.36,0,0,0-1.76-2l-.47-.74.33.42c-.9-1.45-.95-.89-2.07-2.8-.38-.67-.61-1.16-.31-.73l-1-1.42c-.24-.44-.14-.36.11.07-.44-.75-.79-1.56-1.19-2.33h0c-.21-.31-.65-1-.87-1.4-.24-.62.18.29.15.12-.23-.43-.49-.85-.69-1.29s0-.17.18.15.44.8.65,1.25a3.73,3.73,0,0,0-.54-1.37,17.27,17.27,0,0,1-.9-2.49l.51,1.27c-.13-.9-.56-1.87-1-3.35.06.35.77,3,.15,1.55a15.58,15.58,0,0,0-.66-1.76c.12,0-.12-.84-.38-1.84l.17,0a12,12,0,0,0-.61-1.59,3.4,3.4,0,0,1-.18-1.8c-.27-2,0,1.4-.37-.93-.1-.83-.21-1.53-.34-2.27a19.63,19.63,0,0,1-.39-2.51c0-1.16.11.2.13-.22l-.18-1c0-.26,0-.18.06-.14-.09-.86-.16-.06-.28-1.43a5.66,5.66,0,0,1,0-1.76A15,15,0,0,0,9,57.38c.07-.42.09.21.16.08a33.89,33.89,0,0,1,.09-3.91L9.62,52c-.3,1.17-.21-.37-.12-1.73-.12.42-.22.78-.29,1a15.36,15.36,0,0,1,.33-2.14c.09-.25.09,0,.07.33L9.67,49c.25-.74.24-.33.19.23L9.57,50c0,.54,0,1,.15,1s0-.41.07-.7c0,.14,0,.23,0,.17s0-.3.06-.64l.3-.44,0-.13.8-2.68c.08-.49.15-1,.23-1.47s.25-1,.39-1.5a35.25,35.25,0,0,1,1.18-3.74c-.22.76.13.24.25.34A34.43,34.43,0,0,0,11.6,44c.31-.8.32-.6.27-.39l.87-2.81c.08.11.29-.55.69-1.21-.48.42.8-2,1.25-3.15.11,0,.06.27-.59,1.57.88-1.35.58-2,1.58-3.3a2.92,2.92,0,0,0-.34.6c.37-.74,1.48-2.46,1.29-2l-.18.31,1.11-1.82c.44-.66,1-1.31,1.4-1.95a23.49,23.49,0,0,0,1.68-2.53,1.5,1.5,0,0,1-.06.54c.73-1.22,1.52-2.4,2.3-3.63-.12.41,1.16-.35-.09,1.17.42-.38.85-.93,1.68-1.77-.31.23-.89.47-.52.09,1.21-.82.82-.6,2.25-1.66-.45.36-.17-.29.51-.9-.07.13.24.17,0,.41a17.51,17.51,0,0,1,1.55-1.67c-.42.38.07.25.53,0-.22.1,1.56-1.17,2-1.55l-.81.52c2.05-1.52,1.85-1.78,4-3.11-.24.21-.47.7.65.06a14.24,14.24,0,0,1,1.37-1.27,21.21,21.21,0,0,1,2.61-1.68l.42-.12A12.61,12.61,0,0,1,40.66,12c-.48.25-1.33.89-2.25,1.5s-1.9,1.26-2.59,1.71a11,11,0,0,0,1.56-.66c.49-.15-.64.44-1,.63l3-1.4c-.1,0,.45-.36,1-.67s1.17-.51,1.09-.55a25.64,25.64,0,0,0-3.23,1.62c-.11-.05.31-.38,1-.83a10.49,10.49,0,0,1,1.28-.71c.5-.22,1-.43,1.61-.63s-.32.44-.25.47a20.8,20.8,0,0,1,2.28-.91l-.91.43a12.29,12.29,0,0,0,1.63-.67,8.27,8.27,0,0,1,1.89-.5,12.43,12.43,0,0,0,1.7-.32c-.9,0-1.23-.49-.68-.78l1.58-.3a12,12,0,0,1,1.92-.17c.92,0-1.27.55-.49.56a3,3,0,0,1,.71-.22c.57-.05-.21.17,1,0,.18-.2,2.5-.37.56-.23a12.76,12.76,0,0,1,1.27-.19A12.64,12.64,0,0,1,55.83,9c-.47-.08,1.25-.43,2.48-.55-.07.05.21.09.35.11l1.7-.06c.51,0,1,.06,1.46.09.94.07,1.86.14,3,.2.22,0,1.34.17.85.21a9.93,9.93,0,0,1,1.36.11c1.36.36-1.59-.22-.56.11a28.2,28.2,0,0,1,2.88.24A19.36,19.36,0,0,0,66,9c0-.21,1.81-.16,4.27.12a5,5,0,0,1,.95.17c.17.06.22.09.22.11s-.19,0,0,0a24.37,24.37,0,0,0,3.26.69,8,8,0,0,1,2.75.79c1.1.55,0,.27.19.46-.76-.25-1.32-.49-1.83-.68s-1-.32-1.5-.45l1.26.39a17.73,17.73,0,0,1-2.08-.49,53.07,53.07,0,0,1,8.43,3.11c.47.18,1.27.51.92.28L82,13.16c-.7-.45,1.58.6.58.06l1.8.74c.33.13.66.28,1,.45s.67.41,1,.64l.19.3a6.93,6.93,0,0,0-1.33-.86,31.06,31.06,0,0,0,2.88,1.76l-1-.71a19.37,19.37,0,0,1,3.65,2.14c-.47-.54-.29-.21-1.06-1,.67.67-3.31-2-2.15-1a9.53,9.53,0,0,0-1.25-.92c-.44-.29-.9-.61-1.52-1,0,.06.42.31-.72-.27l-.27-.08-.07,0,.06,0c-.06,0-.06,0,0,0a4.62,4.62,0,0,1,.55.35c-.62-.17-2.44-1-3.07-1.29s.3.09,0-.14a6.88,6.88,0,0,0-1-.32c0-.14-1.81-.86-.12-.31l-1.5-.55a22.56,22.56,0,0,0-2.85-1.07c-.72-.21-1.88-.35-1.22-.27l-2.44-.56,0,0a24.92,24.92,0,0,0-3.77-.64c-1.31-.16-2.64-.44-4-.56-.83,0-1.69,0-3.08-.12l-.27-.11c-.54,0-1.34,0-2.07,0a11.29,11.29,0,0,0-1.6.1,8.38,8.38,0,0,0-1.34,0l-.93,0c-.32,0-.66.1-1,.15-1.38.22-2.84.49-3.78.61l0,.13c-1.28.22-2.46.63-4,1.06l.13.09c-1.34.35-3.41,1-5.47,1.75a5.78,5.78,0,0,1,1-.38c-.63.16-1.27.38-1.91.61s-1.22.61-1.82.92l-1.76.93c-.57.29-1.15.54-1.67.83a9.47,9.47,0,0,1-1.22.74l.12-.08-.21.12-.73.38.62-.31c-.39.24-1,.61-1.53,1l-.32,0-.13.09c-.59.31-.42.32-.07.22a4.27,4.27,0,0,0-.69.57c-.55.16-1.38,1.11-2.1,1.39-.15.17-.82.7-1.47,1.23a7.33,7.33,0,0,0-1.24,1.37s-.19.12.08-.12a16.57,16.57,0,0,0-1.61,1.47l-.34.1-.54.63L23,24.1c-.73.67-1,.94-.47.12C21,26.13,21.23,25.7,20,27.34l0-.14a20.77,20.77,0,0,1-1.35,1.9c-1.26,1.1-4.56,6.64-6.35,10.43.32-.3.06.11-.22.66s-.54,1.22-.46,1.34c-.15.21-.39.74-.21.08-.65,2-1.28,3-1.42,4.47-.12.22,0-.47-.07-.27a4.47,4.47,0,0,1-.21.88c-.09.2,0-.32.08-.66-.54,2.13-.38,2.39-.23,2.59a12.13,12.13,0,0,0-.39,1.29A8.06,8.06,0,0,0,9.11,51c-.12.36-.29,1-.1-.36-.12.75-.83,4.59-.63,4.69a10.94,10.94,0,0,0-.06,1.26c-.09,1.71-.11,1.86-.18,3.53l0-.46c.12.66,0,1.39.13,2.74l0,0a21.1,21.1,0,0,0,.08,2.21c0,.16,0,.32,0,.64a11.06,11.06,0,0,0,.11,1.53l.1-.18c.3.25.25,2.7.62,4.44,0-.22,0-.43,0-.65.21.94.3,2.71.49,3.67,0,.22-.12-.31-.21-.6.49,2.52.23.28.74,2.12,0,.36-.35-.37,0,.86.08.31.46,1.17.89,2.15.21.5.43,1,.62,1.53q.15.39.27.75c.1.23.2.45.27.65-.11-.37-.21-.74.22,0,.63,1.19,1.32,3.44,2.13,4.39.07.15.09.22.08.23.59.86,1.83,2.83,2.24,3.3.21,1,4,5.06,3.76,5.19L22.89,97l-.08,0a11.42,11.42,0,0,0,1.62,1.53c.41.33.7.53,1,.74s.05.13,0,.12A19.63,19.63,0,0,0,30,102.87l.14.26a9.81,9.81,0,0,1,.8.6c.38.3.9.6,1.47,1s1.2.77,1.85,1.17a11.23,11.23,0,0,0,2,1.06.81.81,0,0,1-.31-.09c.76.33,1.57.72,2.38,1.13a23.24,23.24,0,0,0,2.42,1.17,13.85,13.85,0,0,0,3.58,1.13,17,17,0,0,0,2.11.49c-2.69-.73.46-.09-.63-.44,1.06.24,2.7.83,1.39.52l-.2-.08c-.53.09,3.34,1,3.25,1a57.73,57.73,0,0,0,16,.81,4.62,4.62,0,0,1-.61-.11c.6,0,1.19-.16,1.78-.24s.65,0-.62.23a8.94,8.94,0,0,0,2.15-.45c2.5-.31-.94.35-.18.24l1-.17-.24,0,1-.25c.31-.07.7-.16,1.45-.36.95-.21.51,0,.88-.11,0,0,.13,0,.58-.14l2.21-.55-.92.09c.95-.31,2.06-.55,1-.42a36,36,0,0,0,4.68-1.53c1.88-.79,3.61-1.73,4.07-1.88l.92-.51.91-.58,2-1.24c-.38.2-.68.19.59-.56-.15.27.49,0,1.22-.52a18.39,18.39,0,0,1,2.19-1.44c-.48.26.36-.38,1.13-1s1.38-1.29.7-.79c.93-.81.13,0,.88-.53.53-.52,1.09-1,1.69-1.59.3-.27.61-.54.91-.83l.87-.92a35.46,35.46,0,0,0,3.51-4c0-.07-.42.38,0-.29l1.33-1.41a3.64,3.64,0,0,0,.37-.68,9.52,9.52,0,0,1,.67-1c-.12.14-.31.35-.08-.07,4.11-5.89,6.5-13.09,8-20.18-.23,1-.14.31,0-.43-.1.48-.11,0-.18.06.19-1,.44-2,.59-3-.14-.56.15-3.25,0-3.58l0,1c-.12-1.27-.5,1.76-.73,1.55a7.23,7.23,0,0,1,0,1.22c-.06.45-.19.93-.3,1.44a17.24,17.24,0,0,0-.47,3.33c-.13.49,0-.45-.11-.19a8.3,8.3,0,0,1-.51,2.56v-.15A29.1,29.1,0,0,1,109.24,77l-.8,2a19.86,19.86,0,0,1-1.07,2.47l.24-.23c-.4.79-.52,1-.72,1.31-.29,1,1.09-2.25.87-1.33A30.5,30.5,0,0,0,106,84.47a14.25,14.25,0,0,1-1.83,2.84c-.71,1.17.32-.27-.39.9l-.25.27-.1.35a2.82,2.82,0,0,1-.93,1c.14-.17.36-.51.49-.7-.76.88-1.93,2.64-2.19,2.94l.82-1c-.56.74-1.1,1.57-1.76,2.33l-2.05,2.27-1,1.14-1.11,1c-.72.67-1.42,1.33-2.06,2l.24-.14a7.9,7.9,0,0,1-1.18,1l-.78.56c-.48.33-1,.68-2.19,1.61l.08-.08A10.83,10.83,0,0,1,88,104.08c.62-.45-1.3.64-.48.06-2.5,1.62-1.19.88-2.83,2l-.45.11a13.07,13.07,0,0,1-2,1.11c1.09-.61-.93.3.28-.4-.74.29-1.36.58-1.91.85l-1.51.62a9.84,9.84,0,0,1-2.31.76c-1.29.75,2.63-.81,1.88-.48.67-.15-1.07.6-2,.92s-1.75.18-4.2.84l.5-.15a14.21,14.21,0,0,0-1.39.36l-.74.21c-.26,0-.54.07-.83.09-.62.25-1.5.22-1.66.44l2.31-.4a38.34,38.34,0,0,1-4.68.89,10.94,10.94,0,0,1,1.24-.31c-.64,0-1.21.26-1.88.22.17-.14,2.81-.45,4.19-.79-.69,0-2.63.54-2,.22a6.58,6.58,0,0,1-1.81.39,17.24,17.24,0,0,0-2.37.19l.1-.12c-.27,0-.83.11-1.33.14l.9-.2a21.5,21.5,0,0,1-4,0c1.39.08,1.55.11,1.5.15s-.29.12.3.13c-3.45.06-2-.37-5.82-.52.52,0,1.95.18,1.13.2a9.76,9.76,0,0,1-2.13-.36c-2.53-.36.37.18-.71.09A11.12,11.12,0,0,0,51,111.1V111l-.86-.14-.51-.11a1.42,1.42,0,0,0-.42,0c-.17,0-.3,0-1.56-.32l1.11.11-1.33-.3.31-.06c-.74-.14-1.22-.24-1.69-.36a8.69,8.69,0,0,1-1.6-.53c.29.2-.25.14-1.47-.3-.8-.37.5.06-1.23-.55a4.48,4.48,0,0,1,1.59.52c.09,0,.41.06.5.06-.86-.41-2.23-.84-2.85-1.06.24.09.52.2.66.27-.42-.13-.86-.25-1.27-.39l-1.24-.5c-.35-.22,0-.11.27,0-.49-.22-.85-.34-1.56-.67.22,0,.22-.11,1.25.33l-2.32-1c-.14-.1-1.11-.67-.8-.56-1.15-.79-3-1.58-4.54-2.68a3.88,3.88,0,0,1-.58-.37l-2-1.58L27.75,100c-.35-.31-.72-.62-1.12-.94l-.75-.92c-1.23-1.06,1,1.23-1-.53-1.45-1.26-.43-.59-.86-1.1a23.71,23.71,0,0,1-3-3.13C21.39,93.74,21.68,94.09,22.05,94.48ZM11.93,77.4a8,8,0,0,1,.52,1.35A3.66,3.66,0,0,1,11.93,77.4Zm-1.49-30a5.52,5.52,0,0,1-.34,1.2C10.19,48.23,10.29,47.83,10.44,47.39Zm67.14-36.6h0C76.73,10.43,77,10.56,77.58,10.79Zm1.71.68c.18,0,.17,0,.11,0a5.64,5.64,0,0,1-1-.32A3.61,3.61,0,0,0,79.29,11.47ZM73,111.34l-.35.06C73.42,111.16,73.21,111.25,73,111.34Z"/><path class="cls-1" d="M9.81,50.8c0,.1-.06.13-.09.15S9.74,51.11,9.81,50.8Z"/><path class="cls-1" d="M31.35,102.67l0,0,.06,0Z"/><path class="cls-1" d="M51.55,9.77a4.4,4.4,0,0,1-.72,0S51,9.85,51.55,9.77Z"/><path class="cls-1" d="M88.08,15.61l-1-.59a9.61,9.61,0,0,1,.89.59S87.77,15.42,88.08,15.61Z"/><path class="cls-1" d="M95.7,22.34l.41.34v-.07C95.57,22.12,95.17,21.81,95.7,22.34Z"/><path class="cls-1" d="M88.8,16.51c0,.15.7.44,1.35.94L90,17.37C90.31,17.39,89.58,16.9,88.8,16.51Z"/><path class="cls-1" d="M90.3,17.56l.61.45C91,18,90.67,17.82,90.3,17.56Z"/><path class="cls-1" d="M81.48,12.26c.34.2.27,0,.45.12C82.38,12.44,79.51,11.43,81.48,12.26Z"/><polygon class="cls-1" points="89.18 17.13 89 16.88 88.55 16.73 89.18 17.13"/><path class="cls-1" d="M83.64,13.87l1.16.59a1.13,1.13,0,0,1,.33.12A13.87,13.87,0,0,0,83.64,13.87Z"/><path class="cls-1" d="M85.13,14.58c.37.19.71.41.92.51A10.24,10.24,0,0,0,85.13,14.58Z"/><polygon class="cls-1" points="87.64 16.24 87.32 16.02 86.54 15.54 87.64 16.24"/><path class="cls-1" d="M70.43,9.32,69,9.14c-.15,0,.23.11.75.17C70.11,9.33,70.64,9.39,70.43,9.32Z"/><path class="cls-1" d="M74.52,10.67a2.62,2.62,0,0,1-.58-.25l-.08.14Z"/><path class="cls-1" d="M70.51,9.72c-.15,0-2.05-.19-.28.07C70.38,9.75,71.78,10,70.51,9.72Z"/><polygon class="cls-1" points="49.32 9.75 49.67 9.65 49.57 9.42 49.32 9.75"/><path class="cls-1" d="M32.38,17.51c1.46-.81.26-.33,1.58-1.05.31-.25-1.08.59-.77.33C32.37,17.37,31.9,17.61,32.38,17.51Z"/><path class="cls-1" d="M33.19,16.79l.42-.3Z"/><polygon class="cls-1" points="112.89 63.46 113 62.37 112.88 63.07 112.89 63.46"/><path class="cls-1" d="M112.81,61.35l.17-.25-.11-.66A8,8,0,0,1,112.81,61.35Z"/><path class="cls-1" d="M11.33,74.48l-.06-.06a4.74,4.74,0,0,0,.18.9Z"/><polygon class="cls-1" points="17.1 87.67 16.97 87.45 17.09 87.93 17.1 87.67"/><path class="cls-1" d="M24.82,97a9.7,9.7,0,0,1-1.11-1.11C24.43,96.66,24.8,97.18,24.82,97Z"/><path class="cls-1" d="M100.43,64.83a4,4,0,0,0-1.74.2.71.71,0,0,1-.28.06l-6.52-.22-6.61-.17q-2.94-.08-5.88-.12c-2,0-3.91,0-5.87,0H58.85l-8.84,0H40.86c-3.92,0-7.84,0-11.75,0h-6a1.09,1.09,0,0,0-1.2.86,2,2,0,0,0,.1.93,1.15,1.15,0,0,0,1.15.57l9.65,0h8.77l8.75,0h8.08l8.8,0h6c2.17,0,4.35,0,6.52,0q4.58-.06,9.15-.18c3.15-.07,6.31-.17,9.47-.25a.86.86,0,0,1,.27,0,4,4,0,0,0,2.51,0,2.4,2.4,0,0,0,.64-.32.53.53,0,0,0,0-.91A2.71,2.71,0,0,0,100.43,64.83Z"/><path class="cls-1" d="M23.6,60.56a4,4,0,0,1,1.73.2.69.69,0,0,0,.28.05l6.52-.21c2.2-.07,4.41-.12,6.61-.18,2,0,3.92-.09,5.88-.11s3.92,0,5.88,0H65.18l8.83,0h9.15l11.76,0h6a1.1,1.1,0,0,1,1.2.85,2,2,0,0,1-.1.94,1.19,1.19,0,0,1-1.15.57H82.41l-8.75,0H65.58l-8.8,0h-6c-2.17,0-4.35,0-6.52,0-3,0-6.1-.11-9.15-.18s-6.31-.17-9.46-.25a.69.69,0,0,0-.28,0,4,4,0,0,1-2.51,0,2.16,2.16,0,0,1-.64-.33.53.53,0,0,1,0-.91A2.64,2.64,0,0,1,23.6,60.56Z"/><path class="cls-1" d="M45,53.56a7.4,7.4,0,0,1-1,.56,7.11,7.11,0,0,1-1.52.52,8,8,0,0,1-1.9.21,8.1,8.1,0,0,1-3.14-.62A7,7,0,0,1,35,52.58a7.18,7.18,0,0,1-1.51-2.41A8,8,0,0,1,33,47.26a8.72,8.72,0,0,1,.54-3.11,7.28,7.28,0,0,1,1.55-2.48A7.14,7.14,0,0,1,37.46,40a7.52,7.52,0,0,1,3-.58,7.85,7.85,0,0,1,2.46.36,9.1,9.1,0,0,1,1.9.85L44,42.57a8.35,8.35,0,0,0-1.53-.81,5,5,0,0,0-2-.38,5.07,5.07,0,0,0-2.08.44,5.37,5.37,0,0,0-1.73,1.23,5.91,5.91,0,0,0-1.61,4.11,6.43,6.43,0,0,0,.39,2.26,5.67,5.67,0,0,0,1.1,1.84,5.1,5.1,0,0,0,1.75,1.22,5.77,5.77,0,0,0,2.29.43,5.46,5.46,0,0,0,2-.35,6.55,6.55,0,0,0,1.48-.79Z"/><path class="cls-1" d="M52.38,54.89a5.11,5.11,0,0,1-2.55-.59,4.28,4.28,0,0,1-1.64-1.63,4.67,4.67,0,0,1-.59-2.36A4.26,4.26,0,0,1,48.26,48,4.94,4.94,0,0,1,50,46.33a4.72,4.72,0,0,1,2.42-.63,4.08,4.08,0,0,1,2.83,1,5.16,5.16,0,0,1,1.55,2.75L49.67,52l-.46-1.15L55,48.66l-.4.29a3,3,0,0,0-.83-1.19,2.29,2.29,0,0,0-1.53-.5,2.64,2.64,0,0,0-2.37,1.41,3.14,3.14,0,0,0-.36,1.53,3.22,3.22,0,0,0,.37,1.57,2.63,2.63,0,0,0,1,1.07,2.86,2.86,0,0,0,1.49.39A2.93,2.93,0,0,0,53.51,53a5,5,0,0,0,1-.54l.87,1.44a5.91,5.91,0,0,1-1.45.7A4.89,4.89,0,0,1,52.38,54.89Zm2.29-13.23L52,44.45H50.77l1.73-2.79Z"/><path class="cls-1" d="M76.67,54.64a4.61,4.61,0,0,1-2.2-.52,3.94,3.94,0,0,1-1.58-1.53,5.53,5.53,0,0,1,0-5A4.2,4.2,0,0,1,74.54,46a4.48,4.48,0,0,1,2.23-.56,3.63,3.63,0,0,1,2,.55,3.74,3.74,0,0,1,1.27,1.3l-.13.32.19-1.82h1.79v8.63H80V52.18l.23.5a2.34,2.34,0,0,1-.4.53,4.47,4.47,0,0,1-.74.66,3.86,3.86,0,0,1-1,.55A3.9,3.9,0,0,1,76.67,54.64Zm.52-1.6a3,3,0,0,0,1.31-.28,2.52,2.52,0,0,0,1-.77A2.87,2.87,0,0,0,80,50.83V49.14a2.65,2.65,0,0,0-.58-1.1,3,3,0,0,0-1-.73,3.17,3.17,0,0,0-1.27-.26,2.82,2.82,0,0,0-1.44.38,2.88,2.88,0,0,0-1,1A3.16,3.16,0,0,0,74.29,50a3.06,3.06,0,0,0,.39,1.53,3,3,0,0,0,1.07,1.08A2.79,2.79,0,0,0,77.19,53Z"/><path class="cls-1" d="M87.49,45.8l.18,2.5L87.59,48a3.76,3.76,0,0,1,1-1.34,4.68,4.68,0,0,1,1.33-.85,3.52,3.52,0,0,1,1.21-.31l-.08,2a2.77,2.77,0,0,0-1.74.36,3.45,3.45,0,0,0-1.17,1.17,3,3,0,0,0-.43,1.55v3.94H85.74V45.8Z"/><path class="cls-1" d="M45.68,85.66,34,73.84l.59.15,0,11.19h-2V69.65h.1L44.24,81.51l-.46-.1,0-11.3h2V85.66Z"/><path class="cls-1" d="M52.35,85.52a2.75,2.75,0,0,1-2-.72,2.55,2.55,0,0,1-.8-1.87V76.55h2v5.69A1.86,1.86,0,0,0,52,83.38a1.48,1.48,0,0,0,1.17.47,2.06,2.06,0,0,0,1.28-.43,3,3,0,0,0,.93-1.17,3.76,3.76,0,0,0,.36-1.67v-4h1.93v8.63H55.85l-.16-2.12.12.39a3.39,3.39,0,0,1-.77,1,3.65,3.65,0,0,1-1.2.75A4.1,4.1,0,0,1,52.35,85.52Z"/><path class="cls-1" d="M62.73,76.55l.15,2.11-.06-.34a3.13,3.13,0,0,1,1.33-1.53,4.16,4.16,0,0,1,2.19-.57,2.81,2.81,0,0,1,2,.72,2.47,2.47,0,0,1,.8,1.86v6.38h-2V79.47a1.79,1.79,0,0,0-.4-1.14,1.53,1.53,0,0,0-1.2-.44,2.33,2.33,0,0,0-1.35.41,2.79,2.79,0,0,0-1,1.15,3.92,3.92,0,0,0-.34,1.69v4H61V76.55Zm3.94-1.06a1.87,1.87,0,0,1-1.11-.3c-.29-.21-.55-.42-.81-.64a4,4,0,0,0-.49-.42,1,1,0,0,0-.57-.18.66.66,0,0,0-.45.18,1.23,1.23,0,0,0-.3.53,3,3,0,0,0-.1.85H61.79A3.5,3.5,0,0,1,62,74a2.29,2.29,0,0,1,.71-1,1.76,1.76,0,0,1,1.14-.38,1.52,1.52,0,0,1,.91.29,7.8,7.8,0,0,1,.75.63c.18.18.37.34.55.49a1,1,0,0,0,.6.22.59.59,0,0,0,.57-.44,3.2,3.2,0,0,0,.18-1.19h1a3.6,3.6,0,0,1-.13,1.5,2.13,2.13,0,0,1-.65,1A1.46,1.46,0,0,1,66.67,75.49Z"/><path class="cls-1" d="M76.51,85.39A5.21,5.21,0,0,1,74,84.8a4.24,4.24,0,0,1-1.65-1.63,4.73,4.73,0,0,1-.58-2.37,4.25,4.25,0,0,1,.66-2.31,4.89,4.89,0,0,1,1.74-1.67,4.8,4.8,0,0,1,2.41-.62,4.11,4.11,0,0,1,2.84,1A5.13,5.13,0,0,1,80.93,80l-7.13,2.5-.46-1.15,5.82-2.14-.4.29a2.72,2.72,0,0,0-.83-1.19,2.28,2.28,0,0,0-1.52-.5A2.64,2.64,0,0,0,74,79.17a3.26,3.26,0,0,0-.35,1.53A3.32,3.32,0,0,0,74,82.26a2.79,2.79,0,0,0,1,1.08,3.06,3.06,0,0,0,2.59.17,4.29,4.29,0,0,0,1-.54l.88,1.44a6.11,6.11,0,0,1-1.45.71A5,5,0,0,1,76.51,85.39Z"/><path class="cls-1" d="M84.14,78.14a1.61,1.61,0,0,1-1.09-.4,1.5,1.5,0,0,1-.45-1.19v-.83h1.48V76c0,.23,0,.39.16.46a1,1,0,0,0,.53.1h5.55L85.14,84l-.39-.39h5.48v1.6h-8l5.27-7.59.34.55Z"/><path class="cls-2" d="M66.48,32c.91,0,1.46,1.26,1.71,2.2a8.48,8.48,0,0,1-.69,5.6,15.17,15.17,0,0,1-2.15,3.35.67.67,0,0,0-.12.43c.19.94.41,1.87.63,2.85a6.52,6.52,0,0,1,1.17,0,4,4,0,0,1,3.18,5.37,4.75,4.75,0,0,1-2.53,3c.18.84.36,1.69.55,2.53a5.34,5.34,0,0,1,0,2.45,3.16,3.16,0,0,1-3.1,2.42,3.06,3.06,0,0,1-2.55-1.11A2.59,2.59,0,0,1,62,59a1.74,1.74,0,0,1,2-1.34,1.8,1.8,0,0,1-.21,3.56h-.27a.69.69,0,0,0,.52.44c1.69.46,3.32,0,3.67-2.18a8,8,0,0,0-.29-3l-.3-1.36c-.41.05-.81.11-1.22.13a6.32,6.32,0,0,1-6.41-5,6.65,6.65,0,0,1,.92-4.72,14.82,14.82,0,0,1,2.79-3.37c.28-.26.58-.51.85-.79a.42.42,0,0,0,.1-.33c-.18-1.19-.41-2.38-.54-3.58a6.85,6.85,0,0,1,.75-3.76A2.67,2.67,0,0,1,66.48,32ZM64.73,44l-.14.11L62,46.88a4.29,4.29,0,0,0-1.1,3.65,4.69,4.69,0,0,0,4.63,4.08,11.55,11.55,0,0,0,1.4-.16c-.22-1.05-.43-2-.63-3s-.42-1.94-.64-2.92A2.62,2.62,0,0,0,64,50c-.64,1.46,1.18,3.13,1.18,3.13a3.87,3.87,0,0,1-1.55-.83,2.67,2.67,0,0,1-1-2.26,3.77,3.77,0,0,1,1.76-2.95,10.68,10.68,0,0,1,1-.53Zm-.09-3.16a7,7,0,0,0,2.51-3.48,4.76,4.76,0,0,0,.25-2.42c-.15-.74-.51-.91-1.19-.57a3.23,3.23,0,0,0-1.45,1.6A6.92,6.92,0,0,0,64.64,40.81Zm2.87,13.33a3.23,3.23,0,0,0,1.54-3.73,2.73,2.73,0,0,0-2.76-1.89Z"/><path class="cls-1" d="M66.25,31.81c.92,0,1.47,1.27,1.71,2.21a8.4,8.4,0,0,1-.68,5.59A14.94,14.94,0,0,1,65.13,43a.58.58,0,0,0-.12.44c.19.93.41,1.86.63,2.85a6.52,6.52,0,0,1,1.17,0A4,4,0,0,1,70,51.63a4.77,4.77,0,0,1-2.54,3c.19.84.37,1.68.55,2.53a5.16,5.16,0,0,1,0,2.44A3.15,3.15,0,0,1,65,62.08,3.1,3.1,0,0,1,62.39,61a2.6,2.6,0,0,1-.64-2.23,1.74,1.74,0,0,1,2-1.34A1.8,1.8,0,0,1,65.2,59.3,1.76,1.76,0,0,1,63.52,61h-.26a.69.69,0,0,0,.52.45c1.68.46,3.32,0,3.67-2.18a8.05,8.05,0,0,0-.3-3c-.09-.45-.19-.89-.29-1.35-.42,0-.82.11-1.22.12a6.32,6.32,0,0,1-6.42-5,6.68,6.68,0,0,1,.93-4.71A14.32,14.32,0,0,1,62.94,42c.28-.26.58-.51.84-.79a.43.43,0,0,0,.11-.33c-.18-1.19-.42-2.38-.54-3.58a6.87,6.87,0,0,1,.75-3.77A2.65,2.65,0,0,1,66.25,31.81ZM64.51,43.75a.67.67,0,0,0-.14.11L61.8,46.65a4.31,4.31,0,0,0-1.11,3.66,4.7,4.7,0,0,0,4.64,4.07,13.89,13.89,0,0,0,1.4-.15c-.23-1.06-.43-2-.64-3s-.42-1.94-.63-2.92a2.56,2.56,0,0,0-1.71,1.49C63.11,51.28,64.93,53,64.93,53a3.81,3.81,0,0,1-1.55-.83,2.7,2.7,0,0,1-1-2.26,3.77,3.77,0,0,1,1.77-3,10.72,10.72,0,0,1,.95-.54Zm-.09-3.16a7,7,0,0,0,2.51-3.48,4.78,4.78,0,0,0,.25-2.43c-.15-.73-.52-.91-1.19-.56a3.17,3.17,0,0,0-1.46,1.6A6.92,6.92,0,0,0,64.42,40.59Zm2.87,13.32a3.21,3.21,0,0,0,1.54-3.72,2.74,2.74,0,0,0-2.76-1.89Z"/></g></g></svg>