<svg width="225" height="225" xmlns="http://www.w3.org/2000/svg" preserveAspectRatio="xMidYMid meet" version="1.0">

 <g>
  <title>Layer 1</title>
  <g id="svg_1" fill="#000000" transform="translate(0 225) scale(0.1 -0.1)">
   <path fill="#ffffff" id="svg_2" d="m1162,2245c-29,-8 -67,-22 -85,-31c-17,-9 -222,-206 -455,-438c-492,-490 -487,-483 -487,-641c0,-157 -9,-144 478,-633c463,-463 477,-475 602,-488c79,-8 175,16 240,61c28,19 108,93 180,165l130,130l-128,127l-127,128l-128,-128l-127,-127l-383,383l-382,382l383,383l382,382l255,-255l255,-255l-255,-255l-255,-255l128,-128l128,-127l273,275c324,327 331,337 331,490c0,155 -4,161 -357,510c-244,241 -310,300 -356,322c-72,34 -167,44 -240,23z"/>
  </g>
 </g>
</svg>