<?xml version="1.0" standalone="no"?>
<!DOCTYPE svg PUBLIC "-//W3C//DTD SVG 20010904//EN"
 "http://www.w3.org/TR/2001/REC-SVG-20010904/DTD/svg10.dtd">
<svg version="1.0" xmlns="http://www.w3.org/2000/svg"
 width="2127.000000pt" height="2127.000000pt" viewBox="0 0 2127.000000 2127.000000"
 preserveAspectRatio="xMidYMid meet">

<g transform="translate(0.000000,2127.000000) scale(0.100000,-0.100000)"
fill="#000000" stroke="none">
<path d="M10509 21247 c-37 -13 -86 -36 -109 -52 -88 -61 -158 -179 -167 -284
l-5 -58 -197 -12 c-2221 -136 -4282 -959 -5978 -2388 l-123 -103 -47 37 c-171
130 -398 117 -548 -32 -143 -144 -162 -360 -45 -529 l32 -48 -28 -31 c-16 -17
-69 -74 -119 -127 -502 -532 -1009 -1216 -1385 -1866 -795 -1374 -1259 -2917
-1352 -4495 l-12 -207 -58 -5 c-130 -12 -261 -107 -321 -235 -30 -62 -32 -75
-32 -172 0 -94 3 -111 28 -164 34 -74 85 -137 140 -174 57 -39 149 -72 200
-72 l43 0 12 -207 c97 -1638 589 -3228 1434 -4638 283 -470 660 -995 987
-1373 l71 -82 -39 -50 c-61 -77 -85 -148 -85 -255 0 -103 21 -169 79 -247 130
-176 390 -216 569 -87 l46 32 52 -49 c29 -26 105 -96 168 -155 1438 -1335
3291 -2240 5250 -2563 365 -60 774 -105 1121 -122 l136 -7 6 -58 c7 -75 52
-173 108 -233 26 -29 70 -60 117 -84 73 -36 80 -37 181 -37 98 0 111 2 173 32
128 60 223 191 235 321 l5 58 207 12 c1558 94 3077 544 4426 1312 668 381
1326 861 1863 1360 68 63 148 137 178 163 l54 48 46 -32 c78 -53 138 -72 234
-72 239 -1 415 174 413 413 0 101 -23 169 -83 248 l-40 53 83 97 c405 473 826
1080 1139 1642 687 1234 1111 2602 1243 4010 16 180 35 441 35 506 l0 41 60 6
c82 7 178 54 240 117 142 141 159 367 40 532 -66 93 -200 168 -300 168 l-37 0
-12 203 c-130 2166 -940 4224 -2320 5892 -145 175 -325 378 -458 517 -57 58
-103 110 -103 115 0 5 12 25 26 44 62 82 93 207 75 305 -58 314 -408 455 -659
264 l-52 -40 -148 124 c-1683 1411 -3746 2231 -5954 2367 l-198 12 0 37 c0
100 -75 234 -168 300 -109 79 -248 100 -373 57z m651 -997 c1156 -65 2227
-315 3285 -768 374 -159 921 -446 1275 -667 1785 -1114 3156 -2775 3910 -4734
328 -852 522 -1717 607 -2701 25 -295 25 -1185 0 -1480 -112 -1304 -425 -2438
-981 -3550 -1089 -2181 -2957 -3867 -5232 -4723 -1510 -568 -3165 -745 -4784
-511 -2038 295 -3934 1248 -5405 2719 -1386 1385 -2314 3150 -2664 5065 -56
311 -103 677 -133 1045 -17 214 -18 1184 0 1385 87 1016 260 1808 582 2675
620 1668 1718 3156 3135 4251 1543 1192 3395 1883 5340 1993 206 12 863 12
1065 1z"/>
<path d="M10208 19894 c-4 -3 -71 -5 -150 -5 -186 1 -359 -12 -588 -44 -278
-39 -594 -96 -605 -111 -6 -7 -29 -15 -50 -19 -76 -13 -477 -116 -571 -146
-52 -16 -92 -34 -89 -39 3 -5 -34 -20 -82 -35 -285 -84 -381 -114 -598 -182
-132 -42 -280 -91 -330 -110 -117 -44 -431 -195 -615 -296 -80 -44 -202 -108
-272 -143 -70 -35 -151 -79 -180 -98 -29 -18 -100 -57 -158 -86 -58 -29 -113
-61 -123 -71 -10 -11 -23 -16 -29 -13 -7 5 -8 2 -3 -6 6 -10 4 -12 -9 -7 -9 4
-15 3 -12 -2 6 -10 -125 -101 -145 -101 -8 0 17 21 55 45 99 64 95 64 -34 0
-94 -47 -111 -59 -95 -66 11 -4 15 -8 9 -8 -21 -2 -66 -43 -54 -51 13 -8 -55
-67 -110 -95 -19 -10 -82 -53 -140 -95 -58 -42 -125 -90 -150 -106 -69 -44
-321 -263 -455 -394 -248 -243 -353 -340 -369 -340 -21 0 -50 -30 -138 -145
-38 -49 -96 -114 -130 -142 -60 -51 -84 -62 -58 -26 7 10 -5 0 -25 -22 -52
-56 -261 -317 -319 -398 -26 -37 -51 -65 -56 -62 -4 2 -49 -55 -100 -127 -51
-72 -114 -155 -140 -183 -135 -149 -417 -557 -594 -858 -159 -271 -516 -949
-516 -980 0 -5 4 -6 9 -2 6 3 -19 -54 -54 -127 -34 -73 -68 -153 -75 -178 -16
-59 -43 -112 -50 -100 -6 9 -79 -187 -171 -457 -21 -62 -46 -154 -56 -204 -12
-64 -19 -85 -23 -68 -5 18 -9 9 -20 -40 -9 -43 -16 -58 -20 -46 -4 11 -15 -21
-30 -86 -22 -98 -26 -161 -18 -304 1 -22 -10 -83 -25 -135 -15 -52 -30 -133
-33 -180 -3 -47 -10 -105 -17 -130 -10 -39 -12 -42 -17 -20 -4 16 -13 -15 -28
-96 -38 -205 -62 -419 -78 -684 -37 -643 -40 -755 -24 -745 7 4 10 -106 10
-322 0 -206 5 -386 14 -483 8 -85 18 -208 22 -273 5 -94 9 -115 19 -107 21 17
30 -26 45 -215 20 -241 64 -540 80 -530 8 5 12 -29 36 -289 8 -92 13 -175 10
-183 -6 -14 11 -94 35 -170 6 -18 16 -33 24 -33 7 0 22 -22 34 -50 28 -64 37
-110 22 -110 -39 0 44 -247 217 -640 32 -74 76 -179 97 -232 21 -54 41 -95 46
-93 12 8 45 -57 145 -292 105 -247 144 -330 207 -438 23 -38 40 -74 39 -79 -2
-4 12 -28 30 -52 18 -23 76 -111 128 -194 52 -83 135 -206 184 -273 49 -67
104 -151 122 -187 61 -124 185 -290 477 -638 80 -95 152 -188 161 -207 19 -39
52 -76 305 -348 201 -216 308 -317 449 -426 45 -36 80 -66 78 -69 -3 -2 61
-63 140 -136 166 -150 357 -295 538 -410 68 -43 128 -87 133 -97 14 -32 451
-334 688 -476 125 -75 363 -202 610 -326 584 -292 957 -441 1175 -471 25 -4
108 -22 185 -41 162 -40 186 -43 95 -10 l-65 24 77 -4 c56 -3 108 -14 185 -40
141 -48 188 -73 74 -39 -63 18 -80 11 -27 -11 64 -27 531 -144 721 -180 398
-77 943 -137 1415 -154 267 -9 712 -1 980 19 154 11 270 27 219 29 -14 0 -29
4 -33 8 -7 7 236 42 294 42 44 1 0 -16 -63 -24 -32 -3 -56 -9 -54 -12 9 -9
219 28 297 52 41 13 104 26 140 29 l65 6 -80 -25 c-44 -14 -64 -23 -45 -20 19
3 53 8 75 12 22 3 45 9 50 14 30 23 402 108 500 115 41 2 157 28 280 62 172
46 204 58 175 62 -32 5 -26 8 63 34 53 16 97 32 97 35 0 4 33 15 73 25 234 60
632 209 982 369 331 150 395 184 745 392 301 178 360 216 315 199 -18 -7 -18
-6 -6 9 23 29 131 96 145 91 20 -8 120 46 246 132 61 41 162 107 223 146 62
39 113 74 115 79 2 4 60 54 130 111 147 119 252 216 252 234 0 12 23 25 52 29
26 3 70 40 243 205 307 293 508 496 667 673 191 212 375 440 359 445 -15 5 9
50 44 82 82 75 216 242 250 310 20 41 58 104 83 139 25 35 39 60 31 56 -11 -7
-10 -3 2 15 9 14 59 90 111 170 543 827 956 1864 1254 3144 37 157 50 277 34
307 -7 11 3 87 31 235 42 225 41 215 65 735 5 105 3 162 -4 175 -8 14 -9 4 -5
-44 5 -52 3 -62 -9 -57 -12 5 -22 -23 -51 -134 -19 -77 -42 -155 -50 -173 -9
-18 -18 -79 -21 -138 -3 -59 -19 -176 -35 -260 -53 -277 -91 -505 -100 -596
-4 -49 -9 -75 -11 -59 -1 17 -8 -15 -16 -70 -7 -55 -27 -154 -44 -220 -17 -66
-40 -156 -51 -200 -100 -401 -298 -948 -513 -1419 -17 -36 -21 -55 -13 -47 12
9 17 9 23 0 5 -8 3 -9 -6 -4 -10 6 -12 4 -6 -11 4 -10 4 -15 0 -11 -9 9 -105
-166 -108 -197 -3 -33 -205 -417 -304 -580 -47 -78 -114 -178 -149 -224 -59
-78 -78 -112 -52 -96 16 10 -18 -52 -49 -88 -16 -18 -40 -58 -55 -89 -15 -30
-52 -82 -83 -115 -30 -32 -47 -45 -36 -29 67 106 6 35 -95 -110 -42 -60 -106
-150 -142 -200 -36 -49 -66 -92 -66 -96 0 -13 -163 -218 -310 -388 -190 -219
-398 -438 -625 -655 -96 -93 -236 -228 -310 -301 -151 -147 -244 -223 -500
-404 -96 -69 -211 -152 -255 -186 -173 -133 -361 -245 -387 -229 -7 4 -8 2 -4
-4 4 -7 1 -12 -8 -12 -19 0 -255 -149 -316 -200 -81 -68 -163 -120 -204 -131
-22 -6 -65 -28 -95 -48 -101 -68 -204 -124 -235 -128 -17 -2 -40 -6 -51 -9
-20 -5 -20 -5 -1 10 11 9 24 16 30 16 5 0 7 2 4 5 -6 7 -117 -39 -459 -188
-283 -124 -401 -168 -489 -182 -51 -8 -111 -36 -93 -42 16 -6 173 39 291 84
52 19 96 33 98 30 8 -8 -174 -86 -306 -131 -74 -25 -180 -53 -235 -61 -55 -9
-154 -27 -220 -40 -66 -13 -158 -31 -205 -41 -47 -9 -164 -36 -262 -60 -97
-24 -202 -46 -235 -50 -32 -3 -79 -12 -105 -21 -26 -8 -56 -12 -67 -8 -11 3
-80 -6 -153 -20 -73 -14 -155 -28 -183 -30 -27 -2 -88 -11 -134 -19 -47 -9
-170 -23 -275 -31 -105 -8 -218 -20 -251 -25 -33 -5 -61 -10 -63 -10 -2 0 0 5
4 11 4 8 -3 9 -22 5 -53 -10 -152 -16 -119 -7 18 5 -56 9 -195 9 -124 0 -218
-2 -210 -6 8 -4 16 -13 18 -21 5 -22 -280 -8 -448 23 -172 31 -282 46 -328 45
l-37 -2 40 -8 c26 -5 13 -6 -40 -2 -44 2 -147 17 -230 33 -152 28 -285 45
-285 35 0 -2 20 -10 45 -16 69 -17 48 -21 -31 -5 -38 8 -134 20 -213 26 -94 7
-149 16 -155 24 -15 18 -214 56 -323 61 -48 3 -110 11 -138 19 l-50 14 45 2
c41 2 37 4 -44 21 -90 19 -115 28 -80 30 10 0 -57 19 -151 43 -93 24 -223 61
-287 83 -65 22 -119 36 -120 31 -7 -20 -275 57 -309 88 -9 8 -39 24 -65 35
-30 12 -37 17 -19 14 17 -4 68 -21 115 -40 85 -33 183 -56 148 -35 -32 19
-410 160 -442 164 -58 8 -389 134 -381 146 2 4 -32 22 -78 39 -107 41 -127 54
-67 47 l45 -5 -45 20 c-224 101 -303 144 -400 220 -19 15 -125 75 -235 134
-194 103 -454 256 -505 296 l-25 19 38 -15 c20 -8 37 -13 37 -11 0 10 -72 48
-95 51 -40 4 -208 123 -410 289 -60 50 -186 153 -280 228 -114 91 -196 166
-248 227 -42 50 -87 96 -99 102 l-21 11 22 -36 c13 -20 19 -36 14 -36 -4 0
-68 54 -140 120 -110 100 -132 125 -131 146 2 20 -12 38 -67 87 -129 113 -325
311 -321 323 3 7 -3 18 -12 26 -16 12 -16 11 -2 -6 33 -43 -11 -3 -51 47 -24
29 -31 41 -16 28 30 -27 36 -19 10 13 -9 12 33 -28 95 -89 62 -60 112 -104
112 -97 0 7 -21 32 -47 55 -104 94 -212 212 -365 400 -88 109 -194 234 -234
278 -41 45 -72 84 -69 88 7 13 -89 147 -162 225 -36 39 -86 99 -110 133 -57
80 -163 263 -163 282 0 7 -29 59 -64 115 -63 98 -256 468 -256 489 0 6 -9 20
-19 31 -23 25 -126 205 -126 220 0 6 -26 62 -58 124 -32 63 -56 116 -53 119 3
3 35 -55 72 -128 37 -75 63 -119 59 -99 -13 62 -36 123 -85 220 -52 104 -123
280 -117 287 3 2 12 -14 21 -37 24 -59 27 -49 7 22 -37 132 -136 457 -138 455
-1 -2 10 -62 25 -134 23 -112 25 -134 13 -145 -8 -7 -11 -8 -8 -3 3 6 -23 94
-59 195 -35 102 -64 195 -64 207 0 12 -18 83 -40 159 -27 94 -36 140 -28 145
12 7 -17 103 -59 199 -34 75 -63 233 -63 338 0 99 -9 162 -21 162 -5 0 -9 -17
-10 -37 l-1 -38 -9 30 c-13 46 -50 274 -124 775 -25 165 -32 273 -15 220 14
-44 11 8 -5 80 -8 36 -15 88 -15 115 0 28 -7 69 -15 93 -23 67 -30 320 -15
523 8 96 14 231 14 301 1 117 6 148 19 116 3 -7 6 12 6 42 1 30 6 186 11 345
10 273 17 338 55 525 5 22 4 23 -5 5 -10 -20 -7 193 5 305 l5 45 -20 -55 c-23
-67 -25 -44 -5 76 25 153 37 202 45 179 5 -15 8 -10 13 22 10 60 27 64 27 6 0
-53 -38 -167 -41 -123 -1 23 -2 23 -9 -5 -11 -42 0 -195 16 -225 12 -22 13
-23 15 -5 0 11 0 36 -1 56 -1 21 3 40 9 44 6 3 11 25 11 47 0 23 11 64 24 92
13 28 36 103 51 166 16 63 46 171 67 240 22 69 55 202 73 295 53 268 129 557
200 760 36 103 69 194 75 203 9 16 9 15 10 0 0 -20 15 -24 25 -8 3 6 10 10 14
10 4 0 -7 -30 -25 -67 -35 -72 -197 -543 -190 -550 2 -3 7 5 11 16 3 12 11 21
16 21 5 0 9 7 9 16 0 23 141 438 151 444 18 12 101 196 103 230 3 43 72 206
166 395 75 151 86 149 15 -2 -24 -51 -42 -93 -39 -93 9 0 84 161 113 245 40
111 82 207 89 200 3 -3 28 37 55 88 58 107 129 221 163 257 13 14 66 90 117
170 104 161 314 465 419 607 37 50 93 129 124 175 55 81 56 82 51 43 l-6 -40
18 30 c152 246 242 389 304 480 l74 110 39 -3 c68 -6 67 -19 -9 -122 -56 -75
-30 -52 126 113 118 125 127 138 89 118 -77 -39 -68 -17 19 49 46 35 123 96
171 136 48 39 100 82 115 94 15 12 22 19 16 15 -36 -18 18 65 80 124 26 25 38
30 41 20 2 -8 6 -19 8 -25 2 -6 54 44 115 112 85 92 118 121 132 117 25 -6 90
28 164 88 34 27 105 80 157 117 52 37 111 83 131 102 39 38 277 244 349 302
57 46 191 138 201 138 4 0 5 -9 2 -20 -4 -16 0 -20 18 -20 45 0 124 48 214
130 211 193 549 423 655 445 19 4 79 29 133 56 53 27 97 47 97 45 0 -2 -80
-55 -177 -117 -177 -113 -569 -374 -588 -391 -15 -14 66 18 174 69 107 49 112
46 13 -9 -106 -60 -64 -44 90 33 79 39 181 88 228 109 47 20 109 53 138 73 29
20 118 68 198 107 81 39 144 73 141 77 -8 7 -200 -82 -396 -183 -89 -47 -165
-83 -168 -80 -8 8 183 130 307 195 112 58 376 171 401 171 7 0 -5 -18 -26 -41
l-40 -41 60 27 c72 32 234 95 243 95 4 -1 -4 -7 -18 -15 -14 -8 -22 -14 -18
-15 9 0 144 51 261 99 115 48 338 105 492 126 138 19 155 26 86 36 -55 7 -104
35 -109 61 -2 8 5 25 15 37 15 18 44 26 163 46 179 31 178 31 155 5 -22 -24
-15 -35 15 -25 17 5 20 12 16 30 -6 22 -3 23 107 34 61 6 135 14 164 17 28 3
54 1 57 -4 3 -5 -28 -24 -69 -42 -41 -18 -75 -36 -75 -40 0 -4 24 -7 53 -7 36
0 44 2 27 7 -22 5 -18 8 25 18 28 6 75 11 105 10 30 0 89 9 130 20 41 11 103
23 137 27 35 4 60 11 57 16 -3 5 5 9 18 9 13 0 92 7 177 15 107 10 166 21 195
34 51 25 286 71 363 71 32 1 216 -3 408 -9 440 -12 768 -35 895 -62 30 -7 71
-11 90 -10 161 10 422 10 505 1 266 -29 469 -65 460 -80 -6 -10 150 -47 400
-94 316 -60 425 -86 540 -128 181 -67 246 -106 178 -109 -49 -2 -61 1 -258 72
-115 41 -201 66 -211 62 -12 -4 -15 -3 -10 6 6 9 0 10 -21 6 -18 -4 -23 -3
-15 2 8 7 2 9 -20 9 -18 0 -49 3 -68 7 -19 3 1 -5 45 -18 493 -153 949 -322
1172 -433 109 -55 267 -116 285 -110 6 2 -25 19 -68 37 -104 43 -118 58 -24
25 41 -14 87 -28 101 -30 79 -11 629 -287 629 -316 0 -5 -12 -1 -27 10 -43 29
-109 66 -98 55 31 -32 403 -258 411 -251 2 3 -18 23 -46 44 -27 21 -50 40 -50
42 0 2 35 -16 78 -39 209 -115 326 -183 412 -244 92 -64 82 -49 -31 45 -29 25
-54 43 -54 41 0 -7 -46 19 -200 118 -82 52 -175 109 -206 126 -31 16 -148 89
-260 160 -112 72 -208 129 -212 127 -5 -1 -42 15 -83 37 -74 40 -103 41 -41 2
17 -11 29 -21 26 -21 -3 0 -75 31 -160 68 -85 38 -202 88 -261 112 -59 24
-103 47 -97 51 6 3 -29 19 -78 35 -95 31 -275 126 -203 108 14 -4 23 -4 20 -1
-11 12 -386 158 -525 205 -133 45 -537 150 -700 182 -33 7 -109 25 -170 40
-60 16 -229 47 -375 69 -146 23 -310 51 -365 63 -55 12 -143 23 -195 24 -52 2
-135 10 -185 18 l-90 15 80 -4 c69 -3 74 -2 35 6 -25 5 -166 11 -315 15 -148
3 -322 10 -385 16 -129 12 -653 22 -662 12z m-8511 -11596 c-3 -8 -6 -5 -6 6
-1 11 2 17 5 13 3 -3 4 -12 1 -19z m473 -839 c0 -5 5 -9 11 -9 5 0 7 -5 3 -12
-8 -13 -64 95 -63 122 0 15 49 -85 49 -101z m16800 -457 c0 -5 -7 -17 -15 -28
-14 -18 -14 -17 -4 9 12 27 19 34 19 19z m-16381 -856 c-3 -3 -11 5 -18 17
-13 21 -12 21 5 5 10 -10 16 -20 13 -22z m9634 -4433 c-7 -2 -19 -2 -25 0 -7
3 -2 5 12 5 14 0 19 -2 13 -5z m-46 -9 c-3 -3 -12 -4 -19 -1 -8 3 -5 6 6 6 11
1 17 -2 13 -5z m-50 -10 c-3 -3 -12 -4 -19 -1 -8 3 -5 6 6 6 11 1 17 -2 13 -5z
m-66 -15 c-46 -18 -12 -21 65 -5 42 9 79 14 81 12 8 -7 -210 -55 -322 -70
-216 -29 -265 -30 -135 -2 87 19 37 20 -75 1 -112 -18 -177 -18 -84 0 36 8
153 25 259 40 107 14 196 28 199 31 2 2 11 4 20 3 10 0 6 -4 -8 -10z"/>
<path d="M11848 1633 c7 -3 16 -2 19 1 4 3 -2 6 -13 5 -11 0 -14 -3 -6 -6z"/>
<path d="M11698 19823 c6 -2 18 -2 25 0 6 3 1 5 -13 5 -14 0 -19 -2 -12 -5z"/>
<path d="M11668 19683 c7 -3 16 -2 19 1 4 3 -2 6 -13 5 -11 0 -14 -3 -6 -6z"/>
<path d="M11708 19683 c7 -3 16 -2 19 1 4 3 -2 6 -13 5 -11 0 -14 -3 -6 -6z"/>
<path d="M11725 19671 c-82 -8 -39 -21 73 -21 73 0 321 -22 392 -35 22 -4 21
-2 -5 9 -72 33 -340 60 -460 47z m103 -8 c-10 -2 -26 -2 -35 0 -10 3 -2 5 17
5 19 0 27 -2 18 -5z"/>
<path d="M12155 19661 c18 -8 92 -21 205 -36 27 -4 41 -2 35 3 -5 5 -62 16
-125 26 -125 18 -145 19 -115 7z"/>
<path d="M12270 19570 c48 -12 221 -33 227 -27 8 8 -95 26 -182 31 -59 4 -71
3 -45 -4z"/>
<path d="M13006 19435 c-3 -10 11 -17 46 -25 28 -6 52 -9 53 -8 2 2 -19 13
-45 25 -38 17 -50 18 -54 8z"/>
<path d="M14280 19133 c73 -34 168 -59 127 -33 -18 12 -186 71 -196 69 -3 0
28 -16 69 -36z"/>
<path d="M14620 18990 c8 -5 20 -10 25 -10 6 0 3 5 -5 10 -8 5 -19 10 -25 10
-5 0 -3 -5 5 -10z"/>
<path d="M14735 18832 c14 -14 170 -99 197 -108 13 -3 21 -4 18 -2 -12 11
-224 120 -215 110z"/>
<path d="M15030 18676 c0 -2 7 -7 16 -10 8 -3 12 -2 9 4 -6 10 -25 14 -25 6z"/>
<path d="M15097 18639 c7 -7 15 -10 18 -7 3 3 -2 9 -12 12 -14 6 -15 5 -6 -5z"/>
<path d="M15435 18556 c31 -26 51 -34 40 -16 -3 6 -21 17 -38 26 l-32 16 30
-26z"/>
<path d="M5930 18374 c-25 -14 -50 -27 -55 -28 -6 -1 -54 -32 -108 -69 -90
-63 -114 -87 -86 -87 20 0 112 61 160 105 25 24 64 52 87 64 22 11 43 25 47
31 9 14 6 13 -45 -16z"/>
<path d="M15640 18346 c8 -7 62 -44 119 -81 74 -47 100 -60 89 -43 -8 12 -57
49 -109 81 -90 55 -130 72 -99 43z"/>
<path d="M15626 18302 c64 -46 68 -48 55 -23 -7 11 -28 28 -48 36 -50 21 -51
19 -7 -13z"/>
<path d="M15970 18126 c0 -2 8 -10 18 -17 15 -13 16 -12 3 4 -13 16 -21 21
-21 13z"/>
<path d="M16130 18081 c19 -16 42 -30 50 -30 18 0 -9 22 -55 46 -29 15 -29 14
5 -16z"/>
<path d="M16040 18012 c0 -4 38 -35 84 -67 46 -33 82 -63 80 -66 -2 -4 20 -20
48 -37 74 -42 199 -136 296 -225 78 -72 116 -96 129 -83 11 11 -9 56 -51 114
-25 33 -42 62 -39 65 2 3 -5 10 -16 17 -12 6 -21 8 -21 5 0 -4 -37 19 -82 50
l-83 57 115 -112 c63 -61 108 -108 100 -104 -25 12 -161 124 -225 185 -33 32
-64 58 -70 58 -5 1 -53 28 -105 60 -113 70 -160 95 -160 83z"/>
<path d="M16415 17853 c25 -24 112 -81 135 -87 16 -5 9 3 -20 21 -71 45 -126
77 -115 66z"/>
<path d="M16605 17692 c11 -10 58 -51 105 -92 47 -41 116 -103 154 -139 58
-56 54 -49 -30 42 -54 60 -129 131 -165 158 -65 48 -102 66 -64 31z"/>
<path d="M16850 17347 c30 -31 59 -57 64 -57 13 0 -30 45 -79 83 -35 27 -33
23 15 -26z"/>
<path d="M17075 17261 c84 -87 86 -91 38 -56 -84 59 -65 18 32 -72 56 -51 95
-79 112 -80 15 -1 44 -19 66 -40 24 -22 12 -4 -29 43 -38 45 -88 105 -112 133
-24 28 -47 49 -52 46 -5 -3 -39 23 -77 57 -58 53 -55 49 22 -31z m91 -63 l29
-33 -32 29 c-18 17 -33 31 -33 33 0 8 8 1 36 -29z"/>
<path d="M17270 17025 c13 -14 26 -25 28 -25 3 0 -5 11 -18 25 -13 14 -26 25
-28 25 -3 0 5 -11 18 -25z"/>
<path d="M17360 17017 c0 -2 15 -16 33 -33 l32 -29 -29 33 c-28 30 -36 37 -36
29z"/>
<path d="M10390 16954 c-157 -42 -307 -196 -411 -421 -124 -267 -182 -559
-159 -805 13 -144 31 -269 86 -603 24 -148 42 -282 38 -297 -4 -19 -63 -81
-187 -197 -190 -177 -363 -360 -468 -496 -211 -273 -355 -563 -421 -844 -29
-128 -36 -368 -13 -502 97 -586 560 -1062 1151 -1184 173 -36 290 -38 566 -9
65 6 67 6 73 -17 56 -244 124 -598 135 -709 40 -399 -129 -707 -433 -787 -120
-32 -341 -17 -450 29 -43 19 -87 58 -87 78 0 4 31 10 69 12 234 17 412 244
371 475 -24 140 -112 263 -229 320 -51 26 -66 28 -171 28 -109 0 -118 -2 -181
-32 -155 -76 -238 -230 -226 -422 6 -108 38 -195 112 -306 142 -213 324 -311
600 -322 112 -5 143 -2 215 16 281 70 480 275 552 569 16 67 21 118 21 222 0
151 -3 170 -99 609 -35 162 -63 295 -61 296 1 1 35 21 74 44 189 109 327 257
426 456 144 289 173 578 86 840 -77 231 -244 422 -464 530 -141 69 -216 87
-395 94 l-155 6 -32 145 c-101 450 -115 524 -104 560 6 19 43 76 82 125 150
189 295 410 381 580 104 204 201 490 240 705 28 155 30 439 4 585 -40 225
-127 432 -225 538 -94 101 -180 126 -311 91z m254 -514 c65 -57 96 -221 77
-397 -30 -263 -146 -553 -310 -773 -87 -117 -321 -344 -337 -327 -10 9 -52
208 -68 318 -21 138 -21 370 -1 485 57 325 215 573 435 683 105 52 154 55 204
11z m-485 -2559 c34 -161 61 -294 59 -296 -2 -1 -41 -22 -88 -46 -217 -112
-400 -299 -476 -487 -82 -203 -83 -403 -4 -571 82 -172 271 -331 479 -402 30
-11 56 -19 58 -19 3 0 -22 29 -55 65 -111 121 -204 283 -232 403 -7 31 -11 88
-8 133 4 65 11 91 41 151 41 83 95 151 163 208 48 39 148 93 195 105 24 6 26
4 37 -52 6 -32 70 -331 141 -665 72 -334 131 -615 131 -626 0 -17 -15 -21
-135 -37 -238 -32 -441 -5 -630 84 -303 142 -513 396 -602 729 -24 87 -26 115
-26 277 -1 203 12 269 77 410 71 153 99 188 579 708 121 131 223 235 227 230
4 -4 35 -140 69 -302z m539 -773 c192 -79 331 -219 393 -398 34 -98 38 -275
10 -395 -48 -201 -178 -383 -328 -459 l-31 -16 -11 48 c-18 77 -271 1244 -271
1249 0 3 39 3 88 1 63 -3 104 -12 150 -30z"/>
<path d="M17492 16830 c40 -47 99 -116 130 -155 30 -38 71 -83 89 -100 18 -16
10 -4 -19 28 -29 32 -52 65 -52 73 0 8 -50 65 -111 127 -106 107 -108 108 -37
27z"/>
<path d="M17536 16850 c27 -30 87 -101 133 -158 46 -57 85 -101 88 -99 14 14
-49 95 -153 197 -65 63 -96 90 -68 60z"/>
<path d="M3933 16777 c-49 -20 -54 -26 -84 -92 -45 -101 -62 -144 -46 -121 37
56 114 153 151 192 24 24 40 44 37 43 -3 -1 -29 -11 -58 -22z"/>
<path d="M17596 16630 c13 -26 86 -120 93 -120 4 0 24 -23 45 -50 21 -28 48
-56 60 -62 20 -11 20 -10 6 8 -14 18 -108 125 -178 202 -18 21 -30 30 -26 22z"/>
<path d="M17815 16458 c22 -26 41 -45 44 -42 3 2 -15 24 -38 47 l-44 42 38
-47z"/>
<path d="M18060 16205 c13 -14 26 -25 28 -25 3 0 -5 11 -18 25 -13 14 -26 25
-28 25 -3 0 5 -11 18 -25z"/>
<path d="M18146 16050 c7 -28 64 -121 64 -105 0 6 -16 37 -36 70 -19 33 -32
49 -28 35z"/>
<path d="M18210 15892 c0 -5 10 -17 22 -28 l21 -19 -18 28 c-18 28 -25 33 -25
19z"/>
<path d="M18327 15723 c26 -42 48 -72 51 -65 3 10 -84 142 -94 142 -2 0 17
-35 43 -77z"/>
<path d="M18280 15747 c0 -26 58 -150 93 -196 22 -30 41 -62 42 -71 1 -19 66
-112 73 -106 2 3 -8 27 -23 53 -16 26 -64 111 -107 188 -43 77 -78 136 -78
132z"/>
<path d="M18426 15608 c23 -39 71 -108 98 -138 17 -19 39 -46 49 -60 10 -14
-1 12 -25 57 -23 45 -44 80 -46 78 -2 -2 1 -13 8 -24 21 -40 1 -21 -41 39 -23
33 -44 60 -46 60 -2 0 -1 -6 3 -12z"/>
<path d="M18535 15348 c15 -48 49 -98 67 -98 16 0 12 10 -22 60 -43 64 -56 74
-45 38z"/>
<path d="M3630 14961 l0 -48 88 -5 c107 -7 185 -35 255 -92 l52 -42 3 -1371 2
-1372 -42 -34 c-88 -71 -219 -115 -318 -105 l-40 4 0 -53 0 -53 415 0 415 0 0
749 0 749 43 21 c69 33 187 44 426 38 239 -5 288 -14 406 -72 134 -66 248
-181 315 -320 51 -107 65 -170 64 -295 0 -124 -16 -187 -80 -310 -97 -189
-258 -327 -422 -361 -62 -13 -202 -7 -265 11 l-37 11 30 37 c16 20 34 60 41
87 40 174 -164 312 -310 210 -47 -32 -91 -112 -91 -165 0 -112 92 -227 240
-298 130 -62 214 -83 370 -89 297 -12 489 51 667 221 173 163 255 352 255 586
0 380 -217 650 -682 847 -24 10 -24 11 -5 19 108 41 263 170 346 287 150 214
181 507 80 756 -80 196 -260 373 -457 447 -142 53 -154 54 -990 54 l-774 0 0
-49z m1374 -151 c115 -29 189 -73 287 -170 139 -138 199 -276 199 -460 0 -260
-144 -484 -385 -595 -99 -47 -170 -59 -330 -59 -150 0 -231 13 -283 44 l-32
20 0 589 0 589 33 21 c47 29 118 38 288 40 115 1 162 -3 223 -19z"/>
<path d="M7303 14996 c-516 -99 -928 -630 -1018 -1314 -19 -145 -19 -419 0
-564 53 -401 216 -750 469 -1004 163 -162 298 -243 494 -296 113 -30 315 -30
437 0 421 104 781 521 920 1067 49 192 60 292 59 530 -1 240 -21 387 -80 581
-136 451 -433 817 -767 946 -155 60 -365 82 -514 54z m283 -180 c87 -23 155
-66 244 -156 155 -154 259 -350 335 -633 65 -239 93 -613 66 -883 -54 -534
-276 -981 -556 -1120 -191 -95 -386 -58 -557 104 -210 200 -350 526 -410 957
-26 188 -14 585 23 775 l11 54 20 -39 c28 -53 119 -142 170 -165 78 -36 173
-22 225 32 79 82 85 207 15 281 -80 85 -207 94 -283 20 -44 -42 -49 -35 -49
75 0 140 31 228 136 390 99 152 236 267 368 308 55 17 179 17 242 0z"/>
<path d="M12440 14961 l0 -48 88 -5 c109 -7 209 -42 204 -73 -2 -11 -170 -643
-374 -1405 l-370 -1385 -40 -38 c-79 -73 -227 -125 -325 -114 l-43 5 0 -54 0
-54 485 0 485 0 0 54 0 54 -39 -5 c-80 -11 -228 31 -295 82 -19 14 -18 18 22
171 50 185 90 266 253 509 174 258 335 450 565 675 76 74 139 130 141 125 15
-50 393 -1473 393 -1482 0 -36 -188 -91 -271 -80 l-39 5 0 -54 0 -54 571 0
570 0 -3 53 -3 52 -74 2 c-122 4 -235 48 -298 115 -16 17 -77 232 -248 868
-124 465 -228 850 -230 856 -3 9 85 74 100 74 1 0 6 -12 10 -27 19 -76 103
-136 192 -136 93 0 170 61 195 156 23 89 -21 185 -105 226 -86 42 -167 24
-337 -73 l-95 -55 -15 52 c-9 29 -76 278 -150 554 l-135 503 -392 0 -393 0 0
-49z m702 -1312 c2 -9 -41 -53 -107 -110 -147 -125 -368 -348 -484 -487 -52
-61 -95 -111 -97 -109 -2 2 399 1506 427 1602 11 39 15 29 135 -420 68 -253
125 -467 126 -476z"/>
<path d="M14570 14960 l0 -50 60 0 c117 0 220 -36 308 -107 l42 -34 0 -1365 0
-1365 -37 -34 c-78 -72 -216 -120 -323 -113 l-45 2 -3 -52 -3 -52 620 0 621 0
0 54 0 54 -39 -5 c-94 -13 -238 34 -319 102 l-42 37 0 584 0 584 78 0 c91 0
184 -20 221 -47 20 -16 39 -58 87 -194 239 -683 488 -1154 757 -1436 174 -182
351 -292 537 -334 156 -36 447 15 553 95 102 78 114 236 26 325 -110 109 -292
62 -335 -87 -21 -72 -4 -142 49 -199 l20 -23 -79 0 c-93 1 -154 22 -254 90
-297 202 -670 837 -965 1645 l-63 170 97 21 c182 41 329 123 457 256 174 179
255 380 256 628 1 246 -89 460 -266 635 -119 118 -239 188 -411 239 -68 20
-95 21 -837 24 l-768 3 0 -51z m1325 -164 c224 -60 422 -244 498 -465 24 -69
31 -108 34 -196 6 -143 -12 -230 -73 -355 -40 -79 -62 -109 -133 -180 -177
-175 -313 -219 -669 -220 l-142 0 2 698 3 697 45 23 c43 23 52 23 210 19 104
-3 187 -11 225 -21z"/>
<path d="M18895 14710 c9 -16 18 -30 21 -30 2 0 -2 14 -11 30 -9 17 -18 30
-21 30 -2 0 2 -13 11 -30z"/>
<path d="M18930 14650 c6 -11 13 -20 16 -20 2 0 0 9 -6 20 -6 11 -13 20 -16
20 -2 0 0 -9 6 -20z"/>
<path d="M18971 14640 c14 -31 19 -36 19 -24 0 6 -7 19 -16 30 -14 18 -14 18
-3 -6z"/>
<path d="M19010 14626 c0 -2 7 -23 15 -46 8 -24 13 -51 10 -61 -3 -9 -1 -20 4
-24 7 -3 8 0 5 9 -3 9 -3 16 0 16 3 0 21 -30 40 -67 42 -81 45 -78 11 11 -37
97 -85 190 -85 162z"/>
<path d="M18990 14596 c0 -11 30 -66 36 -66 2 0 -3 15 -12 33 -19 36 -24 44
-24 33z"/>
<path d="M18986 14547 c3 -10 9 -15 12 -12 3 3 0 11 -7 18 -10 9 -11 8 -5 -6z"/>
<path d="M19144 14268 c3 -10 9 -25 13 -35 4 -11 3 -14 -5 -9 -12 7 53 -153
69 -168 5 -6 9 -7 9 -3 0 12 -69 198 -80 215 -11 16 -11 16 -6 0z"/>
<path d="M19241 14078 c-1 -12 31 -89 35 -85 3 2 -4 24 -15 48 -11 24 -20 41
-20 37z"/>
<path d="M19280 13975 c1 -6 7 -21 16 -35 l15 -25 -7 25 c-7 26 -24 52 -24 35z"/>
<path d="M19387 13400 c3 -19 14 -60 24 -90 12 -36 16 -43 12 -20 -3 19 -14
60 -24 90 -12 36 -16 43 -12 20z"/>
<path d="M19431 13350 c-1 -20 39 -168 88 -324 22 -71 50 -179 62 -240 19 -96
56 -212 65 -203 2 2 -21 97 -51 213 -59 225 -164 578 -164 554z"/>
<path d="M19721 12124 c0 -11 3 -14 6 -6 3 7 2 16 -1 19 -3 4 -6 -2 -5 -13z"/>
<path d="M19880 10691 c0 -22 5 -43 10 -46 6 -4 10 10 10 34 0 22 -4 43 -10
46 -6 4 -10 -10 -10 -34z"/>
<path d="M19851 10565 c0 -70 1 -78 14 -62 13 18 11 60 -6 117 -5 16 -7 -3 -8
-55z"/>
<path d="M19866 10187 c-4 -38 -5 -71 -3 -74 8 -7 19 79 15 113 -2 18 -6 4
-12 -39z"/>
<path d="M11810 9550 c-4738 -10 -4837 -11 -6963 -81 -578 -19 -631 -19 -674
-5 -26 9 -87 21 -135 28 -211 28 -448 -59 -448 -164 0 -48 29 -81 104 -118
127 -63 278 -72 457 -29 l85 21 765 -21 c2165 -60 2304 -61 7139 -50 2401 5
4601 10 4890 12 l525 2 45 25 c64 36 85 82 85 190 0 102 -18 135 -93 172 l-47
23 -1025 1 c-564 0 -2683 -2 -4710 -6z"/>
<path d="M3715 8919 c-44 -17 -93 -56 -110 -89 -18 -35 -20 -142 -4 -191 15
-44 55 -87 99 -108 32 -15 275 -17 2800 -22 4411 -10 7438 -9 7940 1 626 13
1283 29 2005 49 l600 17 90 -24 c120 -31 293 -28 399 9 88 29 156 89 156 137
0 132 -336 217 -569 144 -62 -20 -70 -20 -465 -7 -1192 42 -2086 64 -3031 75
-1261 14 -9874 22 -9910 9z"/>
<path d="M1982 8155 c0 -11 4 -31 8 -45 l8 -25 0 25 c0 14 -3 34 -8 45 l-9 20
1 -20z"/>
<path d="M2001 8064 c0 -11 3 -14 6 -6 3 7 2 16 -1 19 -3 4 -6 -2 -5 -13z"/>
<path d="M7412 7466 c-279 -54 -532 -214 -682 -435 -410 -605 -104 -1428 598
-1607 297 -76 628 -11 869 170 78 59 224 213 273 288 37 56 68 143 57 155 -12
11 -38 -20 -106 -131 -126 -202 -288 -329 -519 -405 -533 -177 -1113 140
-1259 686 -36 134 -38 342 -4 478 25 106 101 266 165 351 187 249 475 394 784
394 188 0 347 -43 508 -138 178 -105 329 -284 409 -487 24 -61 51 -179 70
-306 6 -38 37 -59 52 -36 14 22 5 145 -17 234 -95 379 -384 672 -757 769 -122
32 -328 41 -441 20z"/>
<path d="M14240 7461 c-100 -5 -115 -8 -118 -24 -9 -44 6 -46 256 -41 131 2
279 7 330 10 88 6 93 7 90 27 -2 15 -11 23 -28 24 -79 7 -432 10 -530 4z"/>
<path d="M8916 7451 c-4 -6 -6 -32 -6 -58 1 -26 -2 -467 -6 -979 -5 -712 -4
-936 5 -953 9 -16 20 -21 39 -19 l27 3 0 845 c-1 465 -3 917 -5 1005 -5 155
-6 160 -27 163 -11 2 -24 -1 -27 -7z"/>
<path d="M10468 7448 c-3 -7 -6 -459 -7 -1005 l-2 -992 25 -7 c16 -4 33 -1 43
7 15 13 16 80 9 839 -5 454 -10 897 -12 985 -2 88 -4 166 -4 173 0 6 -11 12
-24 12 -13 0 -26 -6 -28 -12z"/>
<path d="M10784 7448 c-5 -7 -10 -456 -12 -998 -4 -887 -3 -987 11 -998 9 -8
26 -12 39 -10 l23 3 0 780 c0 613 -7 1210 -14 1233 -3 8 -41 0 -47 -10z"/>
<path d="M11824 7448 c-4 -6 -9 -451 -12 -988 -4 -749 -2 -981 7 -999 9 -16
20 -21 39 -19 l27 3 0 800 c0 799 -4 1164 -12 1198 -5 19 -38 23 -49 5z"/>
<path d="M12137 7448 c-2 -7 -5 -459 -6 -1005 l-2 -992 25 -7 c16 -4 33 -1 43
7 14 13 15 80 9 789 -8 890 -14 1198 -22 1211 -8 13 -41 11 -47 -3z"/>
<path d="M13694 7448 c-4 -6 -10 -451 -12 -988 -4 -748 -2 -982 7 -999 9 -16
20 -21 39 -19 l27 3 0 790 c0 773 -4 1172 -12 1208 -5 19 -38 23 -49 5z"/>
<path d="M14012 7441 c-4 -11 -7 -462 -7 -1002 0 -924 1 -982 18 -993 12 -8
22 -8 35 0 16 10 17 58 17 775 0 597 -7 1214 -14 1237 -1 1 -10 2 -21 2 -11 0
-24 -9 -28 -19z"/>
<path d="M8995 7210 c-11 -17 5 -49 33 -66 15 -9 74 -68 132 -130 58 -63 360
-369 672 -681 599 -599 579 -582 612 -530 9 14 -37 65 -294 323 -262 263 -577
571 -1012 991 -102 98 -129 116 -143 93z"/>
<path d="M12220 7201 c0 -11 61 -83 142 -167 223 -232 1231 -1244 1251 -1255
22 -12 57 5 57 29 0 16 -921 941 -1255 1260 -153 146 -195 175 -195 133z"/>
<path d="M14262 6458 l3 -23 192 0 c135 1 197 5 205 13 6 6 8 15 4 19 -4 5
-98 10 -208 11 l-200 4 4 -24z"/>
<path d="M2986 5855 c7 -33 24 -58 24 -34 -1 7 -7 25 -15 39 l-15 25 6 -30z"/>
<path d="M10901 5506 c-8 -10 -11 -26 -7 -42 l7 -26 307 5 c373 7 357 5 357
37 0 31 19 30 -350 37 -268 5 -302 4 -314 -11z"/>
<path d="M14130 5505 c-7 -9 -10 -25 -6 -41 l7 -26 297 6 c376 8 367 7 367 37
0 22 -4 24 -70 30 -38 4 -185 7 -326 8 -216 1 -259 -1 -269 -14z"/>
<path d="M3800 4732 c0 -5 7 -15 15 -22 8 -7 15 -8 15 -2 0 5 -7 15 -15 22 -8
7 -15 8 -15 2z"/>
<path d="M4257 4305 c60 -71 101 -110 108 -104 2 3 -32 41 -77 85 -77 74 -79
75 -31 19z"/>
<path d="M8128 1793 c7 -3 16 -2 19 1 4 3 -2 6 -13 5 -11 0 -14 -3 -6 -6z"/>
<path d="M9793 1653 c9 -2 23 -2 30 0 6 3 -1 5 -18 5 -16 0 -22 -2 -12 -5z"/>
<path d="M10463 1613 c9 -2 23 -2 30 0 6 3 -1 5 -18 5 -16 0 -22 -2 -12 -5z"/>
<path d="M10533 1613 c9 -2 23 -2 30 0 6 3 -1 5 -18 5 -16 0 -22 -2 -12 -5z"/>
<path d="M12088 1513 c7 -3 16 -2 19 1 4 3 -2 6 -13 5 -11 0 -14 -3 -6 -6z"/>
</g>
</svg>
